<svg id="visual" viewBox="0 0 1920 1080" width="1920" height="1080" xmlns="http://www.w3.org/2000/svg" xmlns:xlink="http://www.w3.org/1999/xlink" version="1.1"><path d="M0 590L32 605.2C64 620.3 128 650.7 192 655.2C256 659.7 320 638.3 384 620.8C448 603.3 512 589.7 576 594.5C640 599.3 704 622.7 768 624C832 625.3 896 604.7 960 590.7C1024 576.7 1088 569.3 1152 579C1216 588.7 1280 615.3 1344 615.8C1408 616.3 1472 590.7 1536 595.3C1600 600 1664 635 1728 637.2C1792 639.3 1856 608.7 1888 593.3L1920 578L1920 1081L1888 1081C1856 1081 1792 1081 1728 1081C1664 1081 1600 1081 1536 1081C1472 1081 1408 1081 1344 1081C1280 1081 1216 1081 1152 1081C1088 1081 1024 1081 960 1081C896 1081 832 1081 768 1081C704 1081 640 1081 576 1081C512 1081 448 1081 384 1081C320 1081 256 1081 192 1081C128 1081 64 1081 32 1081L0 1081Z" fill="#006a65"></path><path d="M0 699L32 711C64 723 128 747 192 758C256 769 320 767 384 748.2C448 729.3 512 693.7 576 683.7C640 673.7 704 689.3 768 692.8C832 696.3 896 687.7 960 682.5C1024 677.3 1088 675.7 1152 683.5C1216 691.3 1280 708.7 1344 703.3C1408 698 1472 670 1536 655.8C1600 641.7 1664 641.3 1728 643.2C1792 645 1856 649 1888 651L1920 653L1920 1081L1888 1081C1856 1081 1792 1081 1728 1081C1664 1081 1600 1081 1536 1081C1472 1081 1408 1081 1344 1081C1280 1081 1216 1081 1152 1081C1088 1081 1024 1081 960 1081C896 1081 832 1081 768 1081C704 1081 640 1081 576 1081C512 1081 448 1081 384 1081C320 1081 256 1081 192 1081C128 1081 64 1081 32 1081L0 1081Z" fill="#00615c"></path><path d="M0 774L32 767.5C64 761 128 748 192 739.5C256 731 320 727 384 731C448 735 512 747 576 765.5C640 784 704 809 768 801.7C832 794.3 896 754.7 960 753.8C1024 753 1088 791 1152 803.8C1216 816.7 1280 804.3 1344 805.7C1408 807 1472 822 1536 824.5C1600 827 1664 817 1728 801.3C1792 785.7 1856 764.3 1888 753.7L1920 743L1920 1081L1888 1081C1856 1081 1792 1081 1728 1081C1664 1081 1600 1081 1536 1081C1472 1081 1408 1081 1344 1081C1280 1081 1216 1081 1152 1081C1088 1081 1024 1081 960 1081C896 1081 832 1081 768 1081C704 1081 640 1081 576 1081C512 1081 448 1081 384 1081C320 1081 256 1081 192 1081C128 1081 64 1081 32 1081L0 1081Z" fill="#005853"></path><path d="M0 873L32 861.8C64 850.7 128 828.3 192 818.7C256 809 320 812 384 817.3C448 822.7 512 830.3 576 844.2C640 858 704 878 768 872C832 866 896 834 960 817.8C1024 801.7 1088 801.3 1152 801.2C1216 801 1280 801 1344 816.7C1408 832.3 1472 863.7 1536 864C1600 864.3 1664 833.7 1728 818.2C1792 802.7 1856 802.3 1888 802.2L1920 802L1920 1081L1888 1081C1856 1081 1792 1081 1728 1081C1664 1081 1600 1081 1536 1081C1472 1081 1408 1081 1344 1081C1280 1081 1216 1081 1152 1081C1088 1081 1024 1081 960 1081C896 1081 832 1081 768 1081C704 1081 640 1081 576 1081C512 1081 448 1081 384 1081C320 1081 256 1081 192 1081C128 1081 64 1081 32 1081L0 1081Z" fill="#004f4b"></path><path d="M0 874L32 887C64 900 128 926 192 926C256 926 320 900 384 897.5C448 895 512 916 576 926.2C640 936.3 704 935.7 768 931C832 926.3 896 917.7 960 913.3C1024 909 1088 909 1152 912.3C1216 915.7 1280 922.3 1344 931C1408 939.7 1472 950.3 1536 940.8C1600 931.3 1664 901.7 1728 894.8C1792 888 1856 904 1888 912L1920 920L1920 1081L1888 1081C1856 1081 1792 1081 1728 1081C1664 1081 1600 1081 1536 1081C1472 1081 1408 1081 1344 1081C1280 1081 1216 1081 1152 1081C1088 1081 1024 1081 960 1081C896 1081 832 1081 768 1081C704 1081 640 1081 576 1081C512 1081 448 1081 384 1081C320 1081 256 1081 192 1081C128 1081 64 1081 32 1081L0 1081Z" fill="#004642"></path><path d="M0 956L32 960.3C64 964.7 128 973.3 192 979C256 984.7 320 987.3 384 988.3C448 989.3 512 988.7 576 992.7C640 996.7 704 1005.3 768 1001.3C832 997.3 896 980.7 960 973C1024 965.3 1088 966.7 1152 966.3C1216 966 1280 964 1344 969.5C1408 975 1472 988 1536 996.2C1600 1004.3 1664 1007.7 1728 1010.5C1792 1013.3 1856 1015.7 1888 1016.8L1920 1018L1920 1081L1888 1081C1856 1081 1792 1081 1728 1081C1664 1081 1600 1081 1536 1081C1472 1081 1408 1081 1344 1081C1280 1081 1216 1081 1152 1081C1088 1081 1024 1081 960 1081C896 1081 832 1081 768 1081C704 1081 640 1081 576 1081C512 1081 448 1081 384 1081C320 1081 256 1081 192 1081C128 1081 64 1081 32 1081L0 1081Z" fill="#003d3a"></path></svg>