<?xml version="1.0" encoding="UTF-8"?>
<svg version="1.1" xmlns="http://www.w3.org/2000/svg" width="411" height="581">
<path d="M0 0 C6.83005562 5.32781661 13.01863607 11.20526218 17 19 C17 19.66 17 20.32 17 21 C17.928125 20.835 18.85625 20.67 19.8125 20.5 C33.04562687 18.71963956 44.0276795 21.00860356 54.81640625 29.15625 C63.12382977 36.17074714 68.32097496 45.23001352 69.2734375 56.12890625 C69.60968602 67.49669264 67.16722437 75.70473127 59.6875 84.375 C58.15306077 85.94459823 56.59213533 87.48895815 55 89 C54.39542969 89.58652344 53.79085937 90.17304687 53.16796875 90.77734375 C49.03716814 94.31417303 44.40118626 96.2045347 39.3125 98 C38.34932861 98.34865112 38.34932861 98.34865112 37.36669922 98.7043457 C34.16158823 99.7420285 32.30820355 100.09119894 29.04296875 99.125 C28.36878906 98.75375 27.69460938 98.3825 27 98 C27 95.69 27 93.38 27 91 C26.01 91 25.02 91 24 91 C24 106.18 24 121.36 24 137 C18.63617148 138.0727657 17.64407805 137.74399837 12.8125 135.8125 C-17.29139339 125.0686676 -58.37088154 124.94342056 -89 134 C-91.875 134.1875 -91.875 134.1875 -94 134 C-95 133 -95 133 -95.12025452 131.24729919 C-95.11803391 130.48562943 -95.11581329 129.72395966 -95.11352539 128.93920898 C-95.11344986 128.07839218 -95.11337433 127.21757538 -95.11329651 126.33067322 C-95.10813522 125.39526199 -95.10297394 124.45985077 -95.09765625 123.49609375 C-95.0962413 122.54307877 -95.09482635 121.59006378 -95.09336853 120.60816956 C-95.08775152 117.55124835 -95.07519616 114.49439923 -95.0625 111.4375 C-95.05748719 109.37044376 -95.05292391 107.30338638 -95.04882812 105.23632812 C-95.03777656 100.15752412 -95.02050055 95.0787743 -95 90 C-96.98 90.495 -96.98 90.495 -99 91 C-98.95875 91.94875 -98.9175 92.8975 -98.875 93.875 C-99 97 -99 97 -101 99 C-111.43911593 99.53533928 -119.94668996 95.53081715 -127.859375 89.04296875 C-136.68487133 80.62009543 -140.21737641 71.21391486 -140.5 59.1875 C-140.43598891 48.06263315 -136.57025053 38.66484702 -129.30859375 30.22265625 C-125.31610177 26.37878496 -120.85277946 23.63164324 -116 21 C-114.865625 20.38125 -113.73125 19.7625 -112.5625 19.125 C-101.98109242 15.78350287 -91.0809151 16.46725637 -81 21.0625 C-75.88179006 23.78565016 -71.60808371 27.41227938 -67.25 31.20703125 C-65.21881661 33.20773457 -65.21881661 33.20773457 -63 33 C-63.57584432 30.61435923 -64.22227595 28.33317216 -65 26 C-66.32338632 25.31379969 -67.65949948 24.65213539 -69 24 C-72.25 21.6875 -72.25 21.6875 -75 19 C-75.54020864 15.79052512 -75.23909161 14.38773322 -73.5234375 11.60546875 C-55.28092852 -8.9256459 -23.66908524 -15.21065447 0 0 Z M-74 77 C-74 89.54 -74 102.08 -74 115 C-72.02 114.505 -72.02 114.505 -70 114 C-70 101.79 -70 89.58 -70 77 C-71.32 77 -72.64 77 -74 77 Z M-2 78 C-2 91.2 -2 104.4 -2 118 C-0.02 118 1.96 118 4 118 C4 104.8 4 91.6 4 78 C0.25308553 76.60229416 0.25308553 76.60229416 -2 78 Z " fill="#F8F8F8" transform="translate(240,14)"/>
<path d="M0 0 C2 2 2 2 2.16699219 4.93896484 C2.12735352 6.18371582 2.08771484 7.4284668 2.046875 8.7109375 C2.02745346 9.3872522 2.00803192 10.06356689 1.98802185 10.76037598 C1.92053022 12.96582673 1.83657229 15.17022096 1.75 17.375 C1.72322174 18.12009827 1.69644348 18.86519653 1.66885376 19.63287354 C1.34062506 28.72151038 0.96081166 37.81199547 0.1875 46.875 C0.10097168 48.07455322 0.10097168 48.07455322 0.01269531 49.29833984 C-0.50824167 54.49960622 -0.50824167 54.49960622 -2.55712891 56.58447266 C-5.83389501 58.48320241 -9.22669749 59.29859081 -12.87890625 60.15625 C-13.64621567 60.34465454 -14.41352509 60.53305908 -15.2040863 60.72717285 C-17.65481662 61.32705116 -20.10843737 61.91391919 -22.5625 62.5 C-24.18576639 62.89362711 -25.80881588 63.28814981 -27.43164062 63.68359375 C-28.22249557 63.87630356 -29.01335052 64.06901337 -29.82817078 64.26756287 C-30.99797234 64.5527755 -30.99797234 64.5527755 -32.19140625 64.84375 C-32.9622908 65.03135391 -33.73317535 65.21895782 -34.52742004 65.4122467 C-38.84323678 66.46482895 -43.15574114 67.52634057 -47.453125 68.65234375 C-48.27071289 68.86624756 -49.08830078 69.08015137 -49.93066406 69.30053711 C-53.4619447 70.49415663 -55.05052752 71.84051011 -57 75 C-57.60052237 79.391772 -57.36332046 83.51368904 -56.3125 87.8125 C-56 90 -56 90 -57.4375 92.3125 C-59.50657858 95.87131516 -59.85562598 99.0274508 -59 103 C-57.89720424 104.75551398 -57.89720424 104.75551398 -56.5 106.375 C-53.47134851 110.06537366 -53.63266645 113.03289046 -54.01953125 117.66796875 C-53.99624813 120.44797328 -53.59679505 121.72492033 -52 124 C-47.59687688 127.73089058 -43.22579821 127.38710919 -37.75 127.25 C-36.94175781 127.24484375 -36.13351562 127.2396875 -35.30078125 127.234375 C-30.5382639 127.17341478 -25.89466013 126.79167631 -21.16943359 126.21826172 C-17.74571183 125.87380895 -14.37899155 125.90649557 -10.9375 125.9375 C-8.97103516 125.95103516 -8.97103516 125.95103516 -6.96484375 125.96484375 C-5.49724609 125.98224609 -5.49724609 125.98224609 -4 126 C-2.97902079 130.13103896 -2.91776588 133.88120568 -3.125 138.125 C-3.19074219 139.95417969 -3.19074219 139.95417969 -3.2578125 141.8203125 C-4 145 -4 145 -6.15673828 146.59570312 C-9.18813909 148.09292255 -11.93949137 148.89915365 -15.234375 149.6484375 C-16.43924561 149.92880859 -17.64411621 150.20917969 -18.88549805 150.49804688 C-20.79842651 150.93213867 -20.79842651 150.93213867 -22.75 151.375 C-34.79016679 154.16479503 -34.79016679 154.16479503 -46.6875 157.5 C-53.23533269 159.50102027 -59.8192132 161.30826772 -66.4375 163.0625 C-78.51895048 166.27895428 -90.54290126 169.68582461 -102.5625 173.125 C-103.44992889 173.37871368 -104.33735779 173.63242737 -105.25167847 173.89382935 C-107.00024031 174.39403957 -108.74865035 174.89478076 -110.49690247 175.39607239 C-112.19742346 175.8836537 -113.89825571 176.3701509 -115.59941101 176.85551453 C-119.70805573 178.03245606 -123.80282667 179.24006898 -127.88232422 180.51464844 C-128.65567612 180.7529538 -129.42902802 180.99125916 -130.22581482 181.23678589 C-131.67244924 181.68446895 -133.11629611 182.14130817 -134.55653381 182.60916138 C-138.49768053 183.82135338 -141.02940735 183.95585637 -145 183 C-145.41040667 160.66764178 -145.74508535 138.33467106 -146 116 C-146.00948921 115.17113785 -146.01897842 114.3422757 -146.02875519 113.48829651 C-146.14985213 102.758659 -146.23907921 92.02931861 -146.28710938 81.29910278 C-146.30193635 78.14195773 -146.32635173 74.98510568 -146.35888672 71.82809448 C-146.39681181 68.10075129 -146.4153947 64.37381197 -146.41895103 60.6462822 C-146.42560623 58.61970214 -146.45189542 56.59321651 -146.47871399 54.56680298 C-146.47438606 52.7559169 -146.47438606 52.7559169 -146.4699707 50.90844727 C-146.47583694 49.85810806 -146.48170319 48.80776886 -146.48774719 47.7256012 C-145.87011913 44.27420711 -144.71331082 43.15436868 -142 41 C-139.51651585 39.82129796 -137.13279227 38.81752742 -134.5625 37.875 C-133.78011963 37.58133545 -132.99773926 37.2876709 -132.19165039 36.98510742 C-129.46687571 35.97355335 -126.73434495 34.98537861 -124 34 C-122.50484863 33.45448486 -122.50484863 33.45448486 -120.97949219 32.89794922 C-101.285489 25.75273951 -81.28084437 19.81646334 -61.14547729 14.0569458 C-57.27522351 12.94915876 -53.40995832 11.82912919 -49.55541992 10.66772461 C-40.69985292 8.00261323 -31.83007798 5.64229876 -22.80249023 3.63208008 C-20.77178593 3.17840414 -18.74435261 2.711666 -16.71679688 2.24414062 C-15.40121555 1.94714539 -14.08546645 1.65089208 -12.76953125 1.35546875 C-11.61042236 1.09403076 -10.45131348 0.83259277 -9.25708008 0.56323242 C-6.06254458 0.01081556 -3.23211151 -0.2508705 0 0 Z " fill="#F9F9F9" transform="translate(352,391)"/>
<path d="M0 0 C5.26698552 -0.19385046 9.91196539 0.46763646 15.02734375 1.765625 C15.79622925 1.95472946 16.56511475 2.14383392 17.3572998 2.33866882 C19.8867424 2.96546197 22.41228078 3.60641536 24.9375 4.25 C25.81358917 4.47108429 26.68967834 4.69216858 27.59231567 4.91995239 C62.73638955 13.81122412 98.07923854 24.144895 131.8125 37.5 C132.60688477 37.81420898 133.40126953 38.12841797 134.21972656 38.45214844 C141.24855615 41.33374763 141.24855615 41.33374763 144 44 C144.49219131 46.539958 144.49219131 46.539958 144.48101807 49.63774109 C144.48651672 50.8114325 144.49201538 51.9851239 144.49768066 53.19438171 C144.47610901 55.12783195 144.47610901 55.12783195 144.45410156 57.1003418 C144.45297337 58.47022468 144.45360639 59.84010998 144.45587158 61.20999146 C144.4570208 64.9309808 144.43347859 68.65145597 144.40557575 72.37232566 C144.3805963 76.26005695 144.37822284 80.1477996 144.37347412 84.03559875 C144.36103412 91.39859232 144.32819883 98.76134876 144.28807616 106.12423784 C144.24339017 114.50621841 144.22137943 122.88821023 144.20129442 131.27028024 C144.15946695 148.5136574 144.08909519 165.75680364 144 183 C139.8694001 183.94085256 137.42343844 183.84245698 133.3359375 182.62890625 C132.22847168 182.30607666 131.12100586 181.98324707 129.97998047 181.65063477 C128.79033691 181.29155029 127.60069336 180.93246582 126.375 180.5625 C125.12734863 180.19632568 123.87969727 179.83015137 122.59423828 179.45288086 C116.5020635 177.66432198 110.42444245 175.82713114 104.34375 174 C88.52420662 169.25569132 72.63256776 164.90962078 56.65426636 160.74034119 C51.33251564 159.35131682 46.01489638 157.9472348 40.69921875 156.53515625 C39.93530319 156.33231522 39.17138763 156.12947418 38.38432312 155.92048645 C35.41984833 155.13322651 32.455419 154.34579661 29.49118042 153.55764771 C27.4656942 153.01937058 25.4399071 152.48223904 23.4140625 151.9453125 C22.16270508 151.61305664 20.91134766 151.28080078 19.62207031 150.93847656 C15.18819692 149.78966224 10.73505143 148.73146523 6.27099609 147.70654297 C4 147 4 147 2 145 C1.66567317 142.13932522 1.44209709 139.36998636 1.3125 136.5 C1.26544922 135.71496094 1.21839844 134.92992187 1.16992188 134.12109375 C0.86393027 128.27213946 0.86393027 128.27213946 2 126 C8.4664824 124.44804422 14.25794456 125.49476649 20.7734375 126.44140625 C25.33805242 127.07387895 29.90369176 127.49103342 34.5 127.8125 C35.2410498 127.87743652 35.98209961 127.94237305 36.74560547 128.00927734 C41.99433409 128.33784182 45.38098089 127.57819012 50 125 C52.27133466 122.80163995 52.96084808 121.79086886 53.1171875 118.6328125 C53.03726563 117.80523437 52.95734375 116.97765625 52.875 116.125 C52.67893007 110.75268399 54.47698108 109.03858267 58 105 C58.91367295 101.97244467 59.23495572 99.15428058 59 96 C58.03567924 94.31243867 57.03789581 92.64333504 56 91 C56.23863247 87.65914545 56.78890476 84.70365079 57.75 81.5 C58.04471188 78.55288119 57.66792915 76.29076724 56.35913086 73.61865234 C50.1116518 66.17823808 32.40508482 65.33919289 23.22924805 63.42456055 C20.84277709 62.92379052 18.45852012 62.41332717 16.07421875 61.90234375 C15.35223801 61.75538559 14.63025726 61.60842743 13.88639832 61.45701599 C9.54819593 60.52557608 5.7936321 59.32643755 2 57 C-1.39827174 46.80518477 -0.29135186 34.14995217 -0.55761719 23.46655273 C-0.62585242 20.77892531 -0.70334837 18.09165959 -0.78125 15.40429688 C-0.82607658 13.6927228 -0.87036781 11.9811346 -0.9140625 10.26953125 C-0.93796051 9.46755814 -0.96185852 8.66558502 -0.98648071 7.83930969 C-1.11459113 2.22918227 -1.11459113 2.22918227 0 0 Z " fill="#F8F9F9" transform="translate(56,391)"/>
<path d="M0 0 C2.140625 2.51171875 2.140625 2.51171875 4.25 5.6875 C10.00872741 13.91044396 17.08891787 17.78748845 26 22 C25.67 23.65 25.34 25.3 25 27 C24.09290283 27.28665527 24.09290283 27.28665527 23.16748047 27.57910156 C20.4001244 28.4596962 17.63763266 29.35470238 14.875 30.25 C13.92367187 30.55035156 12.97234375 30.85070312 11.9921875 31.16015625 C4.43940485 33.5543151 4.43940485 33.5543151 -2 38 C-4.91194717 44.09944737 -5.46165575 50.18525339 -5.51171875 56.84765625 C-5.52966995 57.74495956 -5.54762115 58.64226288 -5.56611633 59.5667572 C-5.6197733 62.39862537 -5.65397034 65.23032942 -5.6875 68.0625 C-5.72071257 69.99676742 -5.7552058 71.9310133 -5.79101562 73.86523438 C-5.87547347 78.57670357 -5.94249553 83.28812789 -6 88 C-9.50083281 88.8964714 -11.62167503 89.1186874 -14.984375 87.77734375 C-15.74161865 87.48899658 -16.4988623 87.20064941 -17.27905273 86.90356445 C-18.50217163 86.42536255 -18.50217163 86.42536255 -19.75 85.9375 C-37.63750691 79.32498584 -56.38652265 75.68621355 -75.12841797 72.38549805 C-77 72 -77 72 -80 71 C-80 72.65 -80 74.3 -80 76 C-78.87207031 76.15855469 -77.74414062 76.31710937 -76.58203125 76.48046875 C-42.37884843 81.470733 -8.85312173 91.9677739 20.6875 110.1875 C21.3467749 110.59129883 22.0060498 110.99509766 22.68530273 111.41113281 C26.59296659 113.88189559 30.01027767 116.4157631 33 120 C33 121.32 33 122.64 33 124 C27.92200675 123.44962245 23.93012677 121.66659994 19.4375 119.3828125 C9.59545446 114.57925948 -0.57955806 111.18819145 -11 107.875 C-11.94730988 107.57018707 -12.89461975 107.26537415 -13.87063599 106.95132446 C-27.3284092 102.62546502 -40.76901238 98.79983726 -54.58251953 95.77636719 C-61.23239911 94.26567873 -67.84065519 92.58198091 -74.45413208 90.9203186 C-76.80468825 90.3301535 -79.15602457 89.74319826 -81.50756836 89.15698242 C-89.36396676 87.1941546 -97.20074157 85.18147053 -105 83 C-104.94763184 84.00264893 -104.89526367 85.00529785 -104.84130859 86.03833008 C-104.65841461 89.80774373 -104.54485697 93.57677981 -104.45068359 97.34936523 C-104.4008123 98.97243458 -104.33287965 100.59506439 -104.24560547 102.21655273 C-103.78001864 111.09830609 -103.62039863 117.57226593 -109.6796875 124.5 C-113.99879507 128.69630862 -117.99737589 130.4815161 -123.765625 131.9609375 C-128.35681534 133.43588512 -132.2298908 135.8645738 -136.28027344 138.44799805 C-140.555912 141.08225136 -140.555912 141.08225136 -143.18945312 140.59448242 C-143.78693359 140.39830322 -144.38441406 140.20212402 -145 140 C-143.60397341 132.06955982 -140.70752688 125.24224336 -137.375 117.9375 C-136.83230469 116.73593262 -136.28960937 115.53436523 -135.73046875 114.29638672 C-124.3548421 89.25176925 -112.06013386 65.13959127 -93 45 C-92.14148438 44.06542969 -91.28296875 43.13085938 -90.3984375 42.16796875 C-78.41134389 29.41376859 -63.82597348 19.39787542 -48 12 C-46.77893555 11.42741455 -46.77893555 11.42741455 -45.53320312 10.84326172 C-34.86836459 5.91087243 -24.6904004 1.70616655 -13 0 C-12.19046875 -0.13921875 -11.3809375 -0.2784375 -10.546875 -0.421875 C-6.75856387 -1.01116784 -3.63769199 -1.2422746 0 0 Z " fill="#F8F9F9" transform="translate(155,299)"/>
<path d="M0 0 C3.03425814 0.19338216 5.70025202 0.8032997 8.63671875 1.6015625 C9.88453125 1.9109375 11.13234375 2.2203125 12.41796875 2.5390625 C40.09203692 9.8143919 64.08939884 22.76967852 84.63671875 42.6015625 C85.50039063 43.40207031 86.3640625 44.20257813 87.25390625 45.02734375 C94.09865343 51.54158133 99.45836241 58.75701278 104.63671875 66.6015625 C105.37728516 67.71289551 105.37728516 67.71289551 106.1328125 68.84667969 C119.74930998 89.46667493 135.09522364 114.54573574 137.63671875 139.6015625 C134.63671875 140.6015625 134.63671875 140.6015625 131.8515625 139.4921875 C130.77003906 138.95078125 129.68851563 138.409375 128.57421875 137.8515625 C124.46154017 135.84325783 120.72682912 134.26987784 116.26171875 133.2890625 C110.32390095 131.66965765 107.86183136 127.56789282 104.63671875 122.6015625 C103.85296875 121.6115625 103.06921875 120.6215625 102.26171875 119.6015625 C98.37867203 112.43286086 99.64097953 103.43198399 100.07421875 95.5390625 C100.12642578 94.48267578 100.17863281 93.42628906 100.23242188 92.33789062 C100.36079695 89.75871868 100.49568923 87.18006814 100.63671875 84.6015625 C93.33028561 86.21662819 86.02445245 87.83438803 78.71899414 89.45385742 C76.24353948 90.00230185 73.76795746 90.5501718 71.29223633 91.09741211 C64.16221265 92.67367469 57.03473452 94.26063289 49.91101074 95.86514282 C47.82787955 96.33365901 45.74419647 96.79973304 43.65979004 97.26254272 C31.72777042 99.91961298 20.17594432 103.15087915 8.64111328 107.20336914 C6.24351033 108.04545768 3.84110125 108.87247187 1.4375 109.69726562 C-17.3783079 116.17494294 -17.3783079 116.17494294 -35.3125 124.71875 C-37.36328125 125.6015625 -37.36328125 125.6015625 -41.36328125 125.6015625 C-40.71123177 120.30875459 -38.64838847 118.59677578 -34.66796875 115.32373047 C-31.06145725 112.62878003 -27.28917464 110.359715 -23.36328125 108.1640625 C-22.53296387 107.69379639 -21.70264648 107.22353027 -20.84716797 106.73901367 C-18.36136228 105.3430943 -15.86577863 103.96730121 -13.36328125 102.6015625 C-12.3254248 102.03405273 -12.3254248 102.03405273 -11.26660156 101.45507812 C15.37142231 87.07984529 43.9928131 80.48936251 73.63671875 75.6015625 C74.13171875 73.6215625 74.13171875 73.6215625 74.63671875 71.6015625 C51.01872674 75.4325917 51.01872674 75.4325917 27.69921875 80.7265625 C26.39198853 81.07001709 26.39198853 81.07001709 25.05834961 81.42041016 C19.5839561 82.92218312 14.34389413 84.79932101 9.07983398 86.92529297 C6.43309323 87.65792731 5.17079028 87.57940095 2.63671875 86.6015625 C0.67692898 84.64177273 1.40542094 80.88183308 1.35546875 78.19921875 C1.32785461 77.07162392 1.32785461 77.07162392 1.29968262 75.92124939 C1.24076814 73.50226914 1.18814402 71.08321279 1.13671875 68.6640625 C2.1917653 51.16687105 2.1917653 51.16687105 -3.5234375 35.90234375 C-7.69956634 32.94979406 -12.6117253 31.39539486 -17.36328125 29.6015625 C-19.11924988 28.84442434 -20.87008303 28.07515663 -22.61328125 27.2890625 C-23.3403125 26.96292969 -24.06734375 26.63679688 -24.81640625 26.30078125 C-25.326875 26.07003906 -25.83734375 25.83929688 -26.36328125 25.6015625 C-26.03027935 22.68139197 -25.54049797 21.75121217 -23.25390625 19.8203125 C-22.3825 19.253125 -21.51109375 18.6859375 -20.61328125 18.1015625 C-14.86879464 14.31776893 -10.54520056 11.08329432 -6.73828125 5.2890625 C-3.17631287 0.808516 -3.17631287 0.808516 0 0 Z " fill="#F8F9F9" transform="translate(258.36328125,298.3984375)"/>
<path d="M0 0 C1.31387695 0.13124268 1.31387695 0.13124268 2.65429688 0.26513672 C42.38488932 4.38488932 42.38488932 4.38488932 52 14 C54.17751479 20.8685806 54.24417384 27.86469781 54 35 C54.886875 35.061875 55.77375 35.12375 56.6875 35.1875 C60.79311386 36.19453736 62.32399591 37.78879509 65 41 C66.75280114 46.25840342 66.77981227 51.53486941 66 57 C64.23874694 60.42843325 62.14877208 62.78057424 59 65 C57.7625 65.28875 56.525 65.5775 55.25 65.875 C54.1775 66.24625 53.105 66.6175 52 67 C50.86965936 69.47262014 50.25864834 71.83361153 49.703125 74.4921875 C48.90521513 77.33806605 48.12716042 78.93991221 46 81 C42.63936545 81.69549556 41.31897766 81.20346908 38.421875 79.35546875 C37.54015625 78.64003906 36.6584375 77.92460937 35.75 77.1875 C27.54094609 70.98681088 20.3036105 68.90094821 10 70 C5.18422939 71.01207088 1.97432221 72.86323517 -1.625 76.1875 C-3.87360786 78.20314398 -4.89782715 78.97112507 -7.875 79.8125 C-12.04192722 78.72909892 -14.49373242 76.4049081 -17.77734375 73.69140625 C-22.39491338 70.1775088 -27.81142756 69.47622898 -33.48046875 69.62109375 C-41.56137701 70.83636212 -48.6724845 75.02713115 -54.96484375 80.05859375 C-57 81 -57 81 -59.609375 80.52734375 C-62.80483492 78.48579991 -63.18004729 76.7016267 -64.3125 73.125 C-65.83824968 68.76485563 -65.83824968 68.76485563 -68.953125 65.56640625 C-70.33514892 64.99056295 -71.7285665 64.44118107 -73.1328125 63.921875 C-76.54136114 62.23899324 -77.4687107 59.36883645 -79 56 C-80.78816966 50.63549101 -80.68834152 45.89615476 -78.4375 40.75 C-76.10451799 36.50213311 -73.37611684 34.94494082 -69 33 C-68.34 33 -67.68 33 -67 33 C-66.94392578 31.86111328 -66.94392578 31.86111328 -66.88671875 30.69921875 C-66.82097656 29.70535156 -66.75523437 28.71148437 -66.6875 27.6875 C-66.62949219 26.70136719 -66.57148438 25.71523437 -66.51171875 24.69921875 C-65.91815901 21.56830438 -65.4931873 20.90341864 -63 19 C-60.15600586 18.18798828 -60.15600586 18.18798828 -56.71484375 17.5703125 C-55.46123047 17.33183594 -54.20761719 17.09335938 -52.91601562 16.84765625 C-50.29207506 16.36763955 -47.66657472 15.89693421 -45.04101562 15.42578125 C-35.34818995 13.57528773 -26.44080162 11.45709858 -19.8125 3.6875 C-13.85562275 -1.78415501 -7.59949063 -0.82238024 0 0 Z M8 29 C8 29.99 8 30.98 8 32 C8.93972656 31.83628906 9.87945312 31.67257813 10.84765625 31.50390625 C15.7063754 30.80980351 20.53934211 30.89165691 25.4375 30.9375 C26.35982422 30.94201172 27.28214844 30.94652344 28.23242188 30.95117188 C30.48835048 30.96286062 32.74413967 30.97924545 35 31 C34.32959786 27.94265113 34.32959786 27.94265113 32.1796875 26.83203125 C24.01348344 23.21952403 14.84456735 22.15543265 8 29 Z M-49 29 C-49.33 29.99 -49.66 30.98 -50 32 C-47.43162348 33.28418826 -46.5480858 32.78288662 -43.8125 32.0625 C-36.74669819 30.39465523 -30.12280125 31.0955173 -23 32 C-23.12177688 30.08533633 -23.12177688 30.08533633 -24 28 C-31.19609348 22.27170176 -42.08092128 23.49618738 -49 29 Z M19 42 C16.7508092 43.82703227 16.7508092 43.82703227 16.75 46.5 C16.7508092 49.17296773 16.7508092 49.17296773 19 51 C21.60280568 50.67958603 21.60280568 50.67958603 24 50 C24.93423645 46.98968256 25.04449911 46.13349732 24 43 C21.60280568 42.32041397 21.60280568 42.32041397 19 42 Z M-35 42 C-37.18712805 43.60204619 -37.18712805 43.60204619 -39 46 C-39.25329784 49.14710302 -39.25329784 49.14710302 -38 52 C-35.53744315 53.45291273 -35.53744315 53.45291273 -33 54 C-30.4856192 52.1142144 -30.02748474 51.16490841 -29.5 48 C-29.68010697 44.79039129 -29.68010697 44.79039129 -32.5 43.125 C-33.325 42.75375 -34.15 42.3825 -35 42 Z " fill="#F8F8F8" transform="translate(211,171)"/>
<path d="M0 0 C12.64598797 -0.57623344 24.7195394 4.37464848 35.296875 11.04296875 C40.14649285 16.03522242 39.72972972 23.14887088 39.72265625 29.70703125 C39.72694138 30.59530609 39.7312265 31.48358093 39.73564148 32.39877319 C39.74135671 34.26616568 39.74190587 36.13358041 39.73754883 38.00097656 C39.73437674 40.8539 39.75792456 43.70579731 39.78320312 46.55859375 C39.78547524 48.37890495 39.78618002 50.19921892 39.78515625 52.01953125 C39.794366 52.86859039 39.80357574 53.71764954 39.81306458 54.59243774 C39.77645325 59.2821796 39.51235279 62.45276748 36.421875 66.23046875 C34.1055905 67.6684595 31.92492592 68.8715654 29.484375 70.04296875 C16.14442896 76.82852253 2.32098733 85.51242646 -7.078125 97.41796875 C-9.578125 100.23046875 -9.578125 100.23046875 -11.96875 100.6875 C-15.56759 100.05716425 -16.54495194 98.53792599 -18.828125 95.73046875 C-29.46444436 83.3156173 -42.56107222 74.18495696 -57.3828125 67.38671875 C-59.578125 66.23046875 -59.578125 66.23046875 -60.578125 64.23046875 C-60.68229441 62.84303722 -60.72674371 61.45085062 -60.73925781 60.05957031 C-60.75366913 58.7674765 -60.75366913 58.7674765 -60.76837158 57.44927979 C-60.77262146 56.51597839 -60.77687134 55.582677 -60.78125 54.62109375 C-60.78695007 53.66152771 -60.79265015 52.70196167 -60.79852295 51.71331787 C-60.80798102 49.67900701 -60.81451012 47.64468077 -60.81835938 45.61035156 C-60.82804257 42.50688658 -60.8590492 39.40409008 -60.890625 36.30078125 C-60.89715729 34.32422268 -60.90240687 32.34765938 -60.90625 30.37109375 C-60.9185968 29.44588928 -60.9309436 28.52068481 -60.94366455 27.56744385 C-60.92578897 22.36157228 -60.50049644 18.73004232 -57.578125 14.23046875 C-51.35428779 8.91599675 -43.33033971 6.41199651 -35.578125 4.23046875 C-34.59328125 3.94171875 -33.6084375 3.65296875 -32.59375 3.35546875 C-23.71570941 1.01202656 -14.91498148 0.55214867 -5.78320312 0.30224609 C-3.8538597 0.23944417 -1.92637344 0.12407864 0 0 Z M-44.578125 20.23046875 C-46.84956574 22.08478962 -46.84956574 22.08478962 -48.578125 24.23046875 C-47.87472934 26.74012489 -47.87472934 26.74012489 -46.578125 29.23046875 C-44.68962145 30.30689584 -44.68962145 30.30689584 -42.578125 30.23046875 C-41.588125 29.57046875 -40.598125 28.91046875 -39.578125 28.23046875 C-39.908125 25.92046875 -40.238125 23.61046875 -40.578125 21.23046875 C-42.35954247 20.36688252 -42.35954247 20.36688252 -44.578125 20.23046875 Z M18.421875 22.23046875 C18.08854167 24.73046875 18.08854167 24.73046875 18.421875 27.23046875 C20.24890727 29.47965955 20.24890727 29.47965955 22.921875 29.48046875 C25.59484273 29.47965955 25.59484273 29.47965955 27.421875 27.23046875 C27.75520833 24.73046875 27.75520833 24.73046875 27.421875 22.23046875 C25.59484273 19.98127795 25.59484273 19.98127795 22.921875 19.98046875 C20.24890727 19.98127795 20.24890727 19.98127795 18.421875 22.23046875 Z M18.421875 52.23046875 C18.751875 54.54046875 19.081875 56.85046875 19.421875 59.23046875 C22.391875 59.72546875 22.391875 59.72546875 25.421875 60.23046875 C27.14002938 57.97879029 27.14002938 57.97879029 28.421875 55.23046875 C28.08854167 52.89713542 28.08854167 52.89713542 26.421875 51.23046875 C22.62161091 49.86627138 21.88650408 49.92071603 18.421875 52.23046875 Z M-48.578125 53.23046875 C-48.91145833 55.73046875 -48.91145833 55.73046875 -48.578125 58.23046875 C-47.918125 58.89046875 -47.258125 59.55046875 -46.578125 60.23046875 C-44.03099096 60.22124173 -44.03099096 60.22124173 -41.578125 59.23046875 C-40.00272432 57.49643539 -40.00272432 57.49643539 -39.578125 55.23046875 C-40.36121967 52.9957647 -40.36121967 52.9957647 -41.578125 51.23046875 C-45.53270348 50.88223068 -45.53270348 50.88223068 -48.578125 53.23046875 Z " fill="#F9FAFA" transform="translate(214.578125,325.76953125)"/>
<path d="M0 0 C4.05301913 2.79169363 4.05301913 2.79169363 8.875 3.625 C12.57540616 2.15880133 15.13925054 0.21239468 18.2265625 -2.25390625 C23.67837242 -6.23959199 30.69328349 -6.53338534 37.1875 -5.6875 C46.36997375 -3.3623749 53.48710016 1.2624794 60.8984375 6.91015625 C69.9609997 13.73434192 78.73583796 17.51442371 90.1875 16.3125 C96.3540228 15.05829197 99.57368232 12.57834862 103.1875 7.3125 C104.24544332 5.34253657 105.26586462 3.34979925 106.1875 1.3125 C107.5075 1.3125 108.8275 1.3125 110.1875 1.3125 C111.1875 2.3125 111.1875 2.3125 111.27734375 4.17578125 C110.60119864 15.04611415 105.32107895 25.08438665 97.1875 32.3125 C81.32101966 44.36706463 63.51975704 45.82262917 44.1875 44.3125 C38.88386249 43.42638857 34.07032408 41.53143324 29.1875 39.3125 C28.11242187 38.85488281 27.03734375 38.39726562 25.9296875 37.92578125 C19.66106162 35.05855262 14.93262839 31.69811499 10.125 26.75390625 C8.31208012 25.09008732 8.31208012 25.09008732 6.11328125 25.39453125 C3.88836209 26.45509109 2.9255794 27.5323804 1.375 29.4375 C-9.73713662 41.02655236 -28.80088398 44.14973449 -44.125 44.5 C-58.32104711 44.32155807 -70.91246492 40.61874844 -81.8125 31.3125 C-89.5865447 23.0479324 -94.3698071 13.80548866 -94.8125 2.3125 C-94.1525 1.3225 -93.4925 0.3325 -92.8125 -0.6875 C-90.8984375 -0.453125 -90.8984375 -0.453125 -88.8125 0.3125 C-87.9765625 2.203125 -87.9765625 2.203125 -87.4375 4.5625 C-85.98773924 9.41302935 -84.23740389 11.60839207 -79.8125 14.3125 C-70.80712795 17.53476119 -61.47622455 17.33190008 -52.8125 13.3125 C-47.2611279 10.19890435 -42.16741312 6.65779912 -37.25 2.625 C-26.00681214 -6.35743913 -12.1299943 -8.38224433 0 0 Z " fill="#F7F8F8" transform="translate(194.8125,250.6875)"/>
<path d="M0 0 C2.69878236 0 4.42193929 0.52865819 6.5234375 2.2421875 C14.70215076 10.91909649 15.53926202 20.88414888 15.40454102 32.29052734 C15.07578966 42.92682473 12.94786123 53.40957205 5.58984375 61.5625 C-0.20187387 66.75187899 -6.81716539 68.422288 -14.27734375 69.38671875 C-15.43261314 69.54682182 -15.43261314 69.54682182 -16.61122131 69.7101593 C-18.2299973 69.93236835 -19.84944072 70.14976386 -21.46948242 70.36254883 C-23.92867008 70.68633741 -26.38517581 71.02647625 -28.84179688 71.36914062 C-30.42434758 71.58430343 -32.00702627 71.79852731 -33.58984375 72.01171875 C-34.67615334 72.16165535 -34.67615334 72.16165535 -35.78440857 72.31462097 C-48.62860664 73.97956669 -48.62860664 73.97956669 -53.0625 70.8125 C-55 68 -55 68 -55.125 65.375 C-53.6034719 62.16288512 -52.19727664 61.56020384 -49 60 C-46.11862717 59.25572117 -43.21276138 58.82087965 -40.26953125 58.39453125 C-39.02208382 58.20113411 -39.02208382 58.20113411 -37.74943542 58.00382996 C-35.1052267 57.59655931 -32.45900641 57.20453046 -29.8125 56.8125 C-28.02133696 56.5380698 -26.23031925 56.26268928 -24.43945312 55.98632812 C-11.46023267 54 -11.46023267 54 -9 54 C-9 52.35 -9 50.7 -9 49 C-10.09876465 49.18175781 -11.1975293 49.36351562 -12.32958984 49.55078125 C-16.44711472 50.2297212 -20.56629826 50.89810247 -24.68603516 51.56347656 C-26.46123671 51.85166073 -28.23599012 52.14262093 -30.01025391 52.43652344 C-54.64704237 56.51261562 -54.64704237 56.51261562 -59.625 53.3125 C-61.26868403 50.54812231 -61.56737985 49.16111629 -61 46 C-59.21963396 43.44112264 -57.99717938 42.99928765 -54.9375 42.2265625 C-52.9884375 41.92878906 -52.9884375 41.92878906 -51 41.625 C-49.48534689 41.38357296 -47.97104812 41.13991663 -46.45703125 40.89453125 C-45.60705566 40.75869629 -44.75708008 40.62286133 -43.88134766 40.48291016 C-36.93064973 39.31798214 -30.0139311 37.94806336 -23.09179688 36.62548828 C-21.97224609 36.41520996 -20.85269531 36.20493164 -19.69921875 35.98828125 C-18.69721436 35.79790283 -17.69520996 35.60752441 -16.6628418 35.41137695 C-14 35 -14 35 -10 35 C-10 33.35 -10 31.7 -10 30 C-11.04865234 30.176521 -12.09730469 30.35304199 -13.17773438 30.53491211 C-17.09867683 31.194473 -21.01998655 31.85182797 -24.94140625 32.50854492 C-26.63291223 32.79213042 -28.32432038 33.07630006 -30.015625 33.36108398 C-32.45807309 33.77223901 -34.90087476 34.18123523 -37.34375 34.58984375 C-38.08991577 34.71592514 -38.83608154 34.84200653 -39.6048584 34.97190857 C-41.73483441 35.32697904 -43.86631394 35.66799066 -46 36 C-46.7307373 36.1160257 -47.46147461 36.23205139 -48.21435547 36.35159302 C-51.6464325 36.8492696 -53.66525704 37.13532162 -56.9375 35.8125 C-59 34 -59 34 -60 32.125 C-60 29.04244785 -58.80373047 27.44791992 -57 25 C-53.62111308 22.74740872 -50.59460562 22.13279336 -46.69140625 21.37890625 C-45.96944565 21.23347885 -45.24748505 21.08805145 -44.50364685 20.93821716 C-42.1911394 20.47333766 -39.87699044 20.01739464 -37.5625 19.5625 C-19.43100054 16.96315264 -19.43100054 16.96315264 -3 10 C-2.01848393 7.7934131 -2.01848393 7.7934131 -1.75 5.375 C-1.05019305 1.05019305 -1.05019305 1.05019305 0 0 Z " fill="#F5F7F6" transform="translate(358,441)"/>
<path d="M0 0 C4.70588235 0.70588235 4.70588235 0.70588235 6 2 C6.23780046 5.55190842 6.39593331 9.09692784 6.51757812 12.65429688 C6.56881836 13.77868164 6.56881836 13.77868164 6.62109375 14.92578125 C6.6461499 15.61067627 6.67120605 16.29557129 6.69702148 17.0012207 C7.06430615 19.42423405 7.62874778 20.9598832 9 23 C17.39105029 27.84422147 28.39664673 28.82669266 37.8125 30.5625 C40.92521881 31.13687642 44.03536737 31.72312295 47.14453125 32.31640625 C47.84463821 32.44149063 48.54474518 32.56657501 49.2660675 32.69544983 C53.59183227 33.52191242 57.25566397 34.6541552 61 37 C62.0625 40.5 62.0625 40.5 62 44 C60.59538529 46.2178127 59.61201059 46.80411373 57.13587952 47.59664917 C54.87895612 48.02285857 53.27408816 47.93298261 51.01342773 47.57861328 C50.24260361 47.46164093 49.47177948 47.34466858 48.67759705 47.22415161 C47.85457596 47.0908847 47.03155487 46.9576178 46.18359375 46.8203125 C45.33072281 46.68809296 44.47785187 46.55587341 43.59913635 46.41964722 C41.79899168 46.13908673 39.99943262 45.8547463 38.20043945 45.56689453 C35.44539228 45.12626226 32.68877582 44.69688352 29.93164062 44.26953125 C28.18218886 43.99544704 26.43283628 43.72072889 24.68359375 43.4453125 C23.85854843 43.31609406 23.03350311 43.18687561 22.18345642 43.05374146 C19.02283481 42.54619275 16.04257656 42.01419219 13 41 C13.33 42.65 13.66 44.3 14 46 C15.03817871 46.17128418 16.07635742 46.34256836 17.14599609 46.51904297 C21.04146079 47.1621995 24.93655289 47.80758919 28.83154297 48.45361328 C30.50917836 48.73155518 32.1869108 49.00891194 33.86474609 49.28564453 C38.57606129 50.06291333 43.2852879 50.85090462 47.99157715 51.65808105 C49.75642619 51.95853338 51.52310438 52.24819956 53.29003906 52.53613281 C54.1765918 52.69178711 55.06314453 52.84744141 55.9765625 53.0078125 C56.70182129 53.13043457 57.42708008 53.25305664 58.17431641 53.37939453 C60.45929953 54.1561299 61.51885842 55.10720908 63 57 C63.64042926 62.12343409 63.64042926 62.12343409 61.78100586 64.66845703 C56.94313471 68.2854206 48.19015822 65.97400198 42.58984375 65.1953125 C40.37103423 64.84710994 38.15356815 64.49024326 35.9375 64.125 C34.83083984 63.95097656 33.72417969 63.77695312 32.58398438 63.59765625 C26.02250917 62.55123079 19.50328984 61.36168645 13 60 C13.33 61.65 13.66 63.3 14 65 C16.37394967 65.44393488 18.74870099 65.88140618 21.125 66.3125 C21.87040039 66.44785156 22.61580078 66.58320313 23.38378906 66.72265625 C27.86244966 67.51333111 32.33898306 68.19374849 36.8515625 68.76171875 C37.83108887 68.88571045 38.81061523 69.00970215 39.81982422 69.13745117 C41.74470385 69.37561533 43.6708295 69.60395444 45.59814453 69.8215332 C54.30804176 70.90179999 54.30804176 70.90179999 58 74 C58.68228213 77.56302889 58.44147466 79.27060708 56.5625 82.375 C50.03393703 86.51506432 39.24386851 83.40368067 31.99804688 82.40087891 C30.00483749 82.12566793 28.01043548 81.860983 26.015625 81.59765625 C2.75867767 78.44535917 2.75867767 78.44535917 -2.625 72.078125 C-10.97086366 59.64278814 -12.46550023 44.34812702 -9.875 29.9375 C-8.58963257 24.25840065 -6.5138548 20.30697959 -3.29296875 15.52734375 C-1.27884059 11.59036211 -1.22218281 7.7339766 -1.10546875 3.37109375 C-1 1 -1 1 0 0 Z " fill="#F5F7F7" transform="translate(46,430)"/>
<path d="M0 0 C0.24817926 2.93383336 0.32643881 5.63632685 0.25 8.5625 C0.24484375 9.35591797 0.2396875 10.14933594 0.234375 10.96679688 C0.15404491 16.84595509 0.15404491 16.84595509 -1 18 C-6.02057583 17.58627772 -10.64754855 16.63939996 -15.48925781 15.28588867 C-44.21289525 7.32898256 -82.89897909 3.21955715 -111.28125 14.69921875 C-114.93972502 15.97891642 -115.59331519 16.12034759 -119 15 C-119.0809313 12.39521117 -119.14045434 9.79293347 -119.1875 7.1875 C-119.22520508 6.08051758 -119.22520508 6.08051758 -119.26367188 4.95117188 C-119.33845453 -0.55781711 -119.33845453 -0.55781711 -117.73339844 -2.65478516 C-115.7990126 -4.15597755 -114.33679641 -4.70839172 -111.97265625 -5.31640625 C-111.18648926 -5.52233398 -110.40032227 -5.72826172 -109.59033203 -5.94042969 C-108.75614746 -6.14571289 -107.92196289 -6.35099609 -107.0625 -6.5625 C-106.2051123 -6.77938477 -105.34772461 -6.99626953 -104.46435547 -7.21972656 C-98.01772211 -8.81955009 -91.59771342 -10.18926403 -85 -11 C-83.66195312 -11.18369141 -83.66195312 -11.18369141 -82.296875 -11.37109375 C-58.98736399 -13.89525203 -20.27155803 -13.51437202 0 0 Z " fill="#F8F9F9" transform="translate(264,158)"/>
<path d="M0 0 C0.671875 2.24609375 0.671875 2.24609375 1 5 C-0.109375 7.03515625 -0.109375 7.03515625 -1.75 9.0625 C-9.65390568 20.29339854 -9.37357292 35.36369387 -7.49609375 48.53515625 C-4.39601892 62.26405906 2.90080686 72.44111515 14 81 C13.505 82.98 13.505 82.98 13 85 C0.31209571 85.50527053 -9.91902414 84.23800254 -19.625 75.6875 C-30.34900449 63.55244228 -34.36259387 51.18270729 -34.3125 35.0625 C-34.32861328 34.02931641 -34.34472656 32.99613281 -34.36132812 31.93164062 C-34.3660329 24.50279725 -33.90700119 17.54654145 -29.046875 11.6171875 C-24.03495873 7.81563196 -18.89212891 4.69182661 -13.25 1.9375 C-12.62448242 1.62603027 -11.99896484 1.31456055 -11.35449219 0.99365234 C-7.17254714 -0.91964859 -4.43237169 -1.18967032 0 0 Z " fill="#F7F9F9" transform="translate(38,436)"/>
<path d="M0 0 C18.87925104 7.03155779 18.87925104 7.03155779 23.0625 15.140625 C28.08291841 29.23977915 25.7933372 46.65848026 19.49853516 59.92358398 C14.48911018 69.79178375 7.58801843 77.75932367 -3.14453125 81.49609375 C-9.4206938 82.94443895 -16.74228884 84.20569539 -22.9375 82.140625 C-22.59540824 79.23036611 -22.33992561 77.56802213 -20.30078125 75.40234375 C-19.62402344 74.88285156 -18.94726562 74.36335937 -18.25 73.828125 C-8.4291828 65.67631967 -3.26097745 54.80352649 -1.9375 42.140625 C-1.06820407 28.15409323 -2.66091842 17.07823457 -9.046875 4.453125 C-9.9375 2.140625 -9.9375 2.140625 -8.9375 -0.859375 C-5.74478787 -2.45573107 -3.28949038 -1.05187192 0 0 Z " fill="#F7F8F8" transform="translate(379.9375,437.859375)"/>
<path d="M0 0 C5.35937256 1.94046248 10.25611839 4.63191649 14.625 8.3125 C15.34190618 9.95818155 16.01531953 11.62415408 16.625 13.3125 C17.615 13.9725 18.605 14.6325 19.625 15.3125 C20.52448282 20.01166724 18.25085494 23.45849425 15.9375 27.375 C15.59783203 27.98666016 15.25816406 28.59832031 14.90820312 29.22851562 C12.65826843 33.11858962 10.44913075 35.9253509 6.625 38.3125 C4.08984375 38.7734375 4.08984375 38.7734375 1.5625 38.6875 C0.72589844 38.67460937 -0.11070312 38.66171875 -0.97265625 38.6484375 C-3.56638781 38.28573683 -5.18707809 37.74612763 -7.375 36.3125 C-11.09604758 31.35110322 -13.10334418 24.45610092 -13.375 18.3125 C-12.4140625 16.015625 -12.4140625 16.015625 -11.375 14.3125 C-12.035 13.3225 -12.695 12.3325 -13.375 11.3125 C-13.22476059 8.13744055 -12.80808901 6.74930651 -10.5546875 4.4765625 C-6.95456098 2.07241021 -4.36517809 0.40418316 0 0 Z M-8.375 14.3125 C-8.375 14.9725 -8.375 15.6325 -8.375 16.3125 C-3.58270772 18.86838921 1.33200886 18.89498228 6.625 18.3125 C10.1297765 16.98264431 10.1297765 16.98264431 12.625 15.3125 C12.625 14.9825 12.625 14.6525 12.625 14.3125 C5.695 14.3125 -1.235 14.3125 -8.375 14.3125 Z " fill="#F5F8F8" transform="translate(202.375,282.6875)"/>
<path d="M0 0 C0.66 0.33 1.32 0.66 2 1 C1.99777939 2.22616028 1.99555878 3.45232056 1.99327087 4.71563721 C1.97294121 16.30822033 1.95798068 27.90079981 1.94818783 39.49339676 C1.94298389 45.45231117 1.93593172 51.4112111 1.92456055 57.37011719 C1.91364287 63.12783703 1.90770444 68.885543 1.90512276 74.6432724 C1.90328445 76.83273283 1.89969487 79.02219255 1.89426994 81.21164703 C1.82274248 95.99363946 1.82274248 95.99363946 2.77415466 110.7366333 C3.0635406 113.6367883 3.11384084 116.50864915 3.09765625 119.421875 C3.09443359 120.46601562 3.09121094 121.51015625 3.08789062 122.5859375 C3.07951172 123.63007812 3.07113281 124.67421875 3.0625 125.75 C3.05798828 126.84054687 3.05347656 127.93109375 3.04882812 129.0546875 C3.0372119 131.70318616 3.02088168 134.35156101 3 137 C1.35 136.67 -0.3 136.34 -2 136 C-1.34 135.67 -0.68 135.34 0 135 C-0.33 134.34 -0.66 133.68 -1 133 C-1.09529159 131.26866457 -1.12630379 129.53363832 -1.12698364 127.79968262 C-1.12980347 126.69756943 -1.13262329 125.59545624 -1.13552856 124.45994568 C-1.13350433 123.24533157 -1.1314801 122.03071747 -1.12939453 120.77929688 C-1.13114685 119.50449966 -1.13289917 118.22970245 -1.13470459 116.91627502 C-1.13927293 113.41429512 -1.13749181 109.91234459 -1.1343255 106.41036415 C-1.13179882 102.75042261 -1.1341403 99.09048363 -1.13571167 95.43054199 C-1.13753246 89.28360542 -1.13512942 83.13668085 -1.13037109 76.98974609 C-1.12492865 69.87677216 -1.12669137 62.76382688 -1.1321975 55.65085363 C-1.1367312 49.55061774 -1.13737792 43.45039048 -1.13475883 37.35015345 C-1.13319747 33.70376268 -1.13299844 30.05738539 -1.13629532 26.41099548 C-1.13971245 22.34754735 -1.13498009 18.28414885 -1.12939453 14.22070312 C-1.13141876 13.00608902 -1.13344299 11.79147491 -1.13552856 10.54005432 C-1.13270874 9.43794113 -1.12988892 8.33582794 -1.12698364 7.20031738 C-1.12660662 6.23871956 -1.12622959 5.27712173 -1.12584114 4.28638458 C-1 2 -1 2 0 0 Z " fill="#E7E9EA" transform="translate(197,437)"/>
<path d="M0 0 C0.79211929 1.89564426 1.58367576 3.79152371 2.375 5.6875 C2.81585938 6.74324219 3.25671875 7.79898437 3.7109375 8.88671875 C4.13632813 9.91410156 4.56171875 10.94148438 5 12 C5.391875 12.8971875 5.78375 13.794375 6.1875 14.71875 C7.18404118 17.516731 6.80467056 19.18365303 6 22 C0.21591338 21.63247861 -2.56849427 19.3478557 -6.6875 15.625 C-7.25533203 15.13 -7.82316406 14.635 -8.40820312 14.125 C-9.95517779 12.76845012 -11.47866733 11.3852455 -13 10 C-13.62132812 9.44441406 -14.24265625 8.88882812 -14.8828125 8.31640625 C-16.58166672 6.31460949 -16.20440142 4.52095079 -16 2 C-10.54538831 0.61470179 -5.63281599 -0.2396943 0 0 Z " fill="#F5F9FA" transform="translate(180,296)"/>
<path d="M0 0 C2.53708292 3.80562439 2.26216278 6.84672798 2.1875 11.25 C2.17887939 12.04833252 2.17025879 12.84666504 2.16137695 13.66918945 C2.12522703 16.11355498 2.06767278 18.55631603 2 21 C1.98066406 21.72558105 1.96132812 22.45116211 1.94140625 23.19873047 C1.50862248 36.74549907 1.50862248 36.74549907 -2 43 C-6.40356958 43.35704618 -6.40356958 43.35704618 -8.6496582 42.01245117 C-10.80584326 38.79902983 -10.36582627 35.34863288 -10.29296875 31.61328125 C-10.28872391 30.79627243 -10.28447906 29.97926361 -10.28010559 29.13749695 C-10.26331691 26.52882893 -10.22566519 23.92093438 -10.1875 21.3125 C-10.17245337 19.54363095 -10.15876492 17.77474979 -10.14648438 16.00585938 C-10.11341286 11.67027504 -10.0616299 7.33526864 -10 3 C-9.34 3 -8.68 3 -8 3 C-7.67 2.34 -7.34 1.68 -7 1 C-5.91205498 5.38566071 -5.87102686 9.65582765 -5.90234375 14.14453125 C-5.9037587 14.91431808 -5.90517365 15.68410492 -5.90663147 16.47721863 C-5.91220394 18.92235288 -5.92475129 21.36739368 -5.9375 23.8125 C-5.94251856 25.47591013 -5.94708085 27.1393217 -5.95117188 28.80273438 C-5.96216434 32.86852528 -5.9794099 36.93424683 -6 41 C-4.515 40.505 -4.515 40.505 -3 40 C-3.01571045 38.85934082 -3.0314209 37.71868164 -3.04760742 36.54345703 C-3.10181524 32.3205468 -3.13631653 28.09766744 -3.16479492 23.87451172 C-3.17990251 22.04503207 -3.20038968 20.21558875 -3.22631836 18.38623047 C-3.26261585 15.76000008 -3.27970615 13.13424751 -3.29296875 10.5078125 C-3.30845261 9.68693146 -3.32393646 8.86605042 -3.33988953 8.02029419 C-3.34057617 5.71533203 -3.34057617 5.71533203 -3 2 C-2.01 1.34 -1.02 0.68 0 0 Z " fill="#EFF1F3" transform="translate(172,88)"/>
<path d="M0 0 C0.87269531 -0.01417969 1.74539062 -0.02835937 2.64453125 -0.04296875 C5.29669085 0.19739594 6.91214999 0.84562691 9.1875 2.1875 C9.27173142 5.5567568 8.69434666 7.60693019 6.46875 10.15625 C1.33935231 14.85217746 -4.3872669 19.41560341 -10.8125 22.1875 C-11.8025 21.8575 -12.7925 21.5275 -13.8125 21.1875 C-13.26260261 16.21551107 -11.60737209 12.25737623 -9.3125 7.875 C-8.99152344 7.24271484 -8.67054688 6.61042969 -8.33984375 5.95898438 C-5.3068056 0.03884924 -5.3068056 0.03884924 0 0 Z " fill="#F7FAFA" transform="translate(236.8125,295.8125)"/>
<path d="M0 0 C0.66 0.33 1.32 0.66 2 1 C2 15.52 2 30.04 2 45 C-0.475 45.495 -0.475 45.495 -3 46 C-3.33 44.68 -3.66 43.36 -4 42 C-3.34 42 -2.68 42 -2 42 C-2.01047363 40.94087402 -2.02094727 39.88174805 -2.03173828 38.79052734 C-2.06806788 34.8432964 -2.09094748 30.89608011 -2.10986328 26.94873047 C-2.1198914 25.24362702 -2.13351726 23.53854064 -2.15087891 21.83349609 C-2.17526803 19.37593358 -2.18651512 16.91859939 -2.1953125 14.4609375 C-2.20563507 13.70444916 -2.21595764 12.94796082 -2.22659302 12.16854858 C-2.22752561 7.72177057 -1.65121642 4.13089783 0 0 Z " fill="#E8EDEF" transform="translate(147,342)"/>
<path d="M0 0 C0.99 0.33 1.98 0.66 3 1 C3 14.86 3 28.72 3 43 C1.02 43.495 1.02 43.495 -1 44 C-2.89705063 42.10294937 -2.13057923 38.77191718 -2.1328125 36.25390625 C-2.13376923 35.5687645 -2.13472595 34.88362274 -2.13571167 34.17771912 C-2.13639414 32.7191458 -2.13453523 31.26056948 -2.13037109 29.80200195 C-2.12509702 27.60295459 -2.13027504 25.40411845 -2.13671875 23.20507812 C-2.14534148 7.25098344 -2.14534148 7.25098344 -1 1 C-0.67 0.67 -0.34 0.34 0 0 Z " fill="#EDF0F2" transform="translate(147,104)"/>
<path d="M0 0 C1.40824893 0.08021999 2.81997231 0.10765977 4.23046875 0.09765625 C5.43413086 0.09282227 5.43413086 0.09282227 6.66210938 0.08789062 C7.49548828 0.07951172 8.32886719 0.07113281 9.1875 0.0625 C10.03248047 0.05798828 10.87746094 0.05347656 11.74804688 0.04882812 C13.83206155 0.03705403 15.91603977 0.0191189 18 0 C18 0.33 18 0.66 18 1 C17.04299194 1.05945801 17.04299194 1.05945801 16.06665039 1.12011719 C-0.02706557 2.15549025 -0.02706557 2.15549025 -15.875 5 C-16.92482056 5.2489502 -16.92482056 5.2489502 -17.99584961 5.50292969 C-21.00404487 6.27615094 -22.76653374 6.76653374 -25 9 C-25 8.34 -25 7.68 -25 7 C-27.31 7.66 -29.62 8.32 -32 9 C-32.33 10.65 -32.66 12.3 -33 14 C-35.0625 12.25 -35.0625 12.25 -37 10 C-37.0859375 8.0234375 -37.0859375 8.0234375 -36 6 C-33.4712594 4.89843069 -31.19938328 4.10052155 -28.5625 3.375 C-27.83619385 3.16335205 -27.1098877 2.9517041 -26.36157227 2.73364258 C-7.75528862 -2.58509621 -7.75528862 -2.58509621 0 0 Z " fill="#EFF3F4" transform="translate(182,149)"/>
<path d="M0 0 C0.66 0 1.32 0 2 0 C2.02481234 4.87467075 2.0429131 9.74930432 2.05493164 14.62402344 C2.05994473 16.28060548 2.06675689 17.93718313 2.07543945 19.59375 C2.08763793 21.98178189 2.09325867 24.36975502 2.09765625 26.7578125 C2.10281754 27.49242706 2.10797882 28.22704163 2.11329651 28.98391724 C2.11374023 33.09778822 1.80210299 36.96450609 1 41 C0.01 40.67 -0.98 40.34 -2 40 C-2.04935509 34.62485095 -2.08569802 29.24983315 -2.10986328 23.87451172 C-2.11993484 22.04506127 -2.13359276 20.21562697 -2.15087891 18.38623047 C-2.17507677 15.76005066 -2.18647132 13.13408325 -2.1953125 10.5078125 C-2.20563507 9.68693146 -2.21595764 8.86605042 -2.22659302 8.02029419 C-2.22699184 6.01210858 -2.1224954 4.00444618 -2 2 C-1.34 1.34 -0.68 0.68 0 0 Z " fill="#ECECF2" transform="translate(236,91)"/>
<path d="M0 0 C0.99 0.33 1.98 0.66 3 1 C3.12550633 7.40082278 3.12550633 7.40082278 2.51586914 10.3112793 C1.90248325 13.50825934 1.78393093 16.57823987 1.68359375 19.83203125 C1.64169922 21.12431641 1.59980469 22.41660156 1.55664062 23.74804688 C1.51683648 25.10286192 1.47712409 26.45767967 1.4375 27.8125 C1.39426277 29.18686105 1.35064688 30.56121024 1.30664062 31.93554688 C1.2007021 35.29026669 1.09862811 38.6450586 1 42 C-1 41 -1 41 -1.6328125 39.34765625 C-4.46321113 26.20651975 -3.81215533 12.84333285 0 0 Z " fill="#ECF0F3" transform="translate(28,449)"/>
<path d="M0 0 C0.99 0.33 1.98 0.66 3 1 C4.00429587 3.67214638 4.12272511 6.20066496 4.11352539 9.03417969 C4.11341209 10.20494049 4.11341209 10.20494049 4.11329651 11.39935303 C4.10813522 12.23178528 4.10297394 13.06421753 4.09765625 13.921875 C4.0962413 14.78186096 4.09482635 15.64184692 4.09336853 16.52789307 C4.08778097 19.26863109 4.07523075 22.00928676 4.0625 24.75 C4.05748339 26.6106759 4.05292077 28.47135309 4.04882812 30.33203125 C4.03781561 34.88805246 4.02055951 39.44401228 4 44 C3.01 44 2.02 44 1 44 C0.97494385 42.79875488 0.9498877 41.59750977 0.92407227 40.35986328 C0.83006856 35.91313571 0.72983083 31.46656693 0.62768555 27.02001953 C0.58430999 25.09362496 0.54263686 23.16719129 0.50268555 21.24072266 C0.44504638 18.47546592 0.38133384 15.7104065 0.31640625 12.9453125 C0.29969376 12.0806839 0.28298126 11.2160553 0.26576233 10.32522583 C0.27840104 6.02604148 0.27840104 6.02604148 -1 2 C-0.67 1.34 -0.34 0.68 0 0 Z " fill="#EEF0F1" transform="translate(244,88)"/>
<path d="M0 0 C0.33 0 0.66 0 1 0 C2.03987597 4.24945853 2.12989631 8.35927856 2.09765625 12.70703125 C2.0962413 13.43242599 2.09482635 14.15782074 2.09336853 14.90519714 C2.08779931 17.2076745 2.07525261 19.51005235 2.0625 21.8125 C2.05748102 23.37955588 2.05291881 24.9466133 2.04882812 26.51367188 C2.03783998 30.34248589 2.02059673 34.17122611 2 38 C1.01 37.67 0.02 37.34 -1 37 C-1.97685365 32.9269597 -2.11545444 29.131793 -2.09765625 24.94921875 C-2.0962413 24.29041214 -2.09482635 23.63160553 -2.09336853 22.95283508 C-2.087805 20.86434238 -2.07525947 18.77595989 -2.0625 16.6875 C-2.05748028 15.26497551 -2.0529182 13.84244934 -2.04882812 12.41992188 C-2.03784757 8.94657923 -2.02060835 5.47330039 -2 2 C-1.34 2 -0.68 2 0 2 C0 1.34 0 0.68 0 0 Z " fill="#E9ECED" transform="translate(164,89)"/>
<path d="M0 0 C0.99 0.33 1.98 0.66 3 1 C3 1.33 3 1.66 3 2 C5.64 2.66 8.28 3.32 11 4 C11 4.66 11 5.32 11 6 C11.99 6.33 12.98 6.66 14 7 C13.01 7.495 13.01 7.495 12 8 C11.236875 7.690625 10.47375 7.38125 9.6875 7.0625 C6.87788487 5.95172193 4.98857027 5.75095248 2 6 C1.67 6.33 1.34 6.66 1 7 C1.5775 7.28875 2.155 7.5775 2.75 7.875 C4.83333333 8.91666667 6.91666667 9.95833333 9 11 C9 11.66 9 12.32 9 13 C9.99 12.67 10.98 12.34 12 12 C12.99 12.66 13.98 13.32 15 14 C14.67 14.66 14.34 15.32 14 16 C6.63927766 15.57534294 0.67862176 13.01651083 -6 10 C-6 9.01 -6 8.02 -6 7 C-5.195625 6.525625 -4.39125 6.05125 -3.5625 5.5625 C-0.8421105 4.26644144 -0.8421105 4.26644144 -0.1875 1.8125 C-0.125625 1.214375 -0.06375 0.61625 0 0 Z " fill="#F0F2F2" transform="translate(137,392)"/>
<path d="M0 0 C0.33 0.66 0.66 1.32 1 2 C1.6091626 1.92346191 2.2183252 1.84692383 2.84594727 1.76806641 C10.54327785 0.92388411 18.13060098 1.00446718 25.85473633 1.296875 C27.95829314 1.37577996 30.06199676 1.44251116 32.16601562 1.5078125 C43.34086672 1.89007235 43.34086672 1.89007235 47 3 C47 2.34 47 1.68 47 1 C47.66 1.33 48.32 1.66 49 2 C49 2.33 49 2.66 49 3 C51.475 3.495 51.475 3.495 54 4 C54 4.66 54 5.32 54 6 C45.79645762 7.43921796 38.13873037 6.51563091 30 5 C29.67 4.67 29.34 4.34 29 4 C26.71011219 3.84111908 24.41556559 3.74861927 22.12109375 3.68359375 C21.4344313 3.66281265 20.74776886 3.64203156 20.04029846 3.62062073 C17.83947065 3.55505857 15.63852025 3.49620985 13.4375 3.4375 C11.94855486 3.39432108 10.45962227 3.350707 8.97070312 3.30664062 C5.31393447 3.1993707 1.65702682 3.09812228 -2 3 C-1.34 2.67 -0.68 2.34 0 2 C0 1.34 0 0.68 0 0 Z " fill="#F0F2F2" transform="translate(182,137)"/>
<path d="M0 0 C1.32 0.33 2.64 0.66 4 1 C4 1.66 4 2.32 4 3 C3.34 3 2.68 3 2 3 C3.62068944 5.19492022 3.62068944 5.19492022 6 7 C8.75811775 6.8235481 8.75811775 6.8235481 11.625 5.75 C17.26293139 4.08078444 22.15384357 3.65078269 28 4 C27.67 4.99 27.34 5.98 27 7 C23.276451 7.76009969 19.5459075 8.47754788 15.8125 9.1875 C14.22985352 9.51137695 14.22985352 9.51137695 12.61523438 9.84179688 C11.59365234 10.03193359 10.57207031 10.22207031 9.51953125 10.41796875 C8.58214111 10.60125732 7.64475098 10.7845459 6.67895508 10.97338867 C3.27951446 11.00715692 1.69029837 10.01438575 -1 8 C-1.9375 6.0625 -1.9375 6.0625 -2 4 C-1.0625 1.75 -1.0625 1.75 0 0 Z " fill="#F2F2F3" transform="translate(300,467)"/>
<path d="M0 0 C0.33 0 0.66 0 1 0 C2.77836087 12.56325906 4.9935569 30.35236194 -2.60546875 41.31640625 C-3.29576172 42.14978516 -3.29576172 42.14978516 -4 43 C-5.57200238 39.85599524 -4.30135209 36.81929952 -3.625 33.5 C-2.2514961 26.34960959 -1.56184763 19.3388105 -1.29150391 12.06640625 C-1.13710391 7.96404515 -0.77487393 4.03315529 0 0 Z " fill="#ECF4F3" transform="translate(380,456)"/>
<path d="M0 0 C0.66 0.33 1.32 0.66 2 1 C2.33 14.53 2.66 28.06 3 42 C1.515 42.495 1.515 42.495 0 43 C-1.14084664 40.71830672 -1.12896004 39.4484306 -1.1328125 36.9140625 C-1.13571289 35.65468872 -1.13571289 35.65468872 -1.13867188 34.36987305 C-1.13416016 33.46406494 -1.12964844 32.55825684 -1.125 31.625 C-1.12306641 30.69921143 -1.12113281 29.77342285 -1.11914062 28.81958008 C-1.06052731 19.19641356 -0.57768782 9.60405997 0 0 Z " fill="#F0F3F4" transform="translate(58,404)"/>
<path d="M0 0 C0.99 0.495 0.99 0.495 2 1 C2 1.66 2 2.32 2 3 C2.66 3 3.32 3 4 3 C5.8491714 6.69834281 5.1847481 11.1174448 5.1875 15.1875 C5.19974609 16.12142578 5.21199219 17.05535156 5.22460938 18.01757812 C5.23600833 23.41688249 4.78580119 27.89670254 3 33 C2.01 33 1.02 33 0 33 C0.16242188 32.2265625 0.32484375 31.453125 0.4921875 30.65625 C1.15037659 25.91728859 1.14499114 21.27788148 1.125 16.5 C1.12886719 15.57574219 1.13273437 14.65148437 1.13671875 13.69921875 C1.13002384 9.0194739 0.96646438 4.60221134 0 0 Z " fill="#E5EBED" transform="translate(368,455)"/>
<path d="M0 0 C2.54490482 2.54490482 2.28451976 4.2385932 2.328125 7.71533203 C2.32296875 8.48989746 2.3178125 9.26446289 2.3125 10.0625 C2.31121094 10.8551123 2.30992187 11.64772461 2.30859375 12.46435547 C2.17634644 20.82403882 0.73459926 28.84325348 -1 37 C-1.33 37 -1.66 37 -2 37 C-2 25.12 -2 13.24 -2 1 C-1.34 0.67 -0.68 0.34 0 0 Z " fill="#E7EAED" transform="translate(351,394)"/>
<path d="M0 0 C0.72509766 -0.00386719 1.45019531 -0.00773438 2.19726562 -0.01171875 C6.75203626 -0.00353408 11.06883814 0.37901661 15.5625 1.125 C15.2325 2.115 14.9025 3.105 14.5625 4.125 C4.9925 4.125 -4.5775 4.125 -14.4375 4.125 C-14.4375 3.135 -14.4375 2.145 -14.4375 1.125 C-9.56777787 0.15567142 -4.93942751 -0.02620386 0 0 Z " fill="#EEEFEF" transform="translate(193.4375,161.875)"/>
<path d="M0 0 C0.33 0.66 0.66 1.32 1 2 C1.66 2 2.32 2 3 2 C7.13772916 10.27545832 4.00350368 25.09706101 1.8515625 33.7265625 C1 36 1 36 -1 37 C-2.13561953 33.59314141 -1.81943005 32.09715026 -1.125 28.625 C-0.94195312 27.68914062 -0.75890625 26.75328125 -0.5703125 25.7890625 C-0.22361852 24.09358645 0.15695693 22.40397401 0.59765625 20.73046875 C1.19398599 16.683532 0.84188484 12.75624248 0.5625 8.6875 C0.51029297 7.85154297 0.45808594 7.01558594 0.40429688 6.15429688 C0.27532629 4.10249211 0.13844979 2.05118694 0 0 Z " fill="#ECF0F0" transform="translate(401,456)"/>
<path d="M0 0 C4.50229637 6.75344456 2.96677034 15.73057453 2.5625 23.5 C2.51029297 24.60859375 2.45808594 25.7171875 2.40429688 26.859375 C2.27562072 29.57327203 2.14070594 32.28670458 2 35 C1.01 35.495 1.01 35.495 0 36 C-0.96749869 31.94361523 -1.12897552 28.14914542 -1.1328125 23.984375 C-1.13376923 23.32794006 -1.13472595 22.67150513 -1.13571167 21.99517822 C-1.1363888 20.61690169 -1.13456723 19.23862188 -1.13037109 17.86035156 C-1.12498159 15.74276687 -1.13034936 13.62539096 -1.13671875 11.5078125 C-1.13605856 10.1666662 -1.13477862 8.82552002 -1.1328125 7.484375 C-1.13168457 6.26459961 -1.13055664 5.04482422 -1.12939453 3.78808594 C-1 1 -1 1 0 0 Z " fill="#EFF2F2" transform="translate(261,337)"/>
<path d="M0 0 C0.33 0.66 0.66 1.32 1 2 C-8.15581397 4.97911518 -17.30760064 7.4307733 -27 7 C-27.33 7.99 -27.66 8.98 -28 10 C-28.66 9.34 -29.32 8.68 -30 8 C-30 7.01 -30 6.02 -30 5 C-26.82118413 4.26302569 -23.64183526 3.52873074 -20.4609375 2.80078125 C-18.44187708 2.33361716 -16.42494396 1.85667032 -14.4140625 1.35546875 C-9.47991173 0.15222847 -5.08178119 -0.18479204 0 0 Z " fill="#E8EDEF" transform="translate(176,186)"/>
<path d="M0 0 C2.5 1.1875 2.5 1.1875 5 3 C5.625 5.5 5.625 5.5 5 8 C2.71561459 10.02904493 1.00542607 11.02082936 -2.09765625 10.95654297 C-4.52797116 10.6226805 -6.90989191 10.18243347 -9.3125 9.6875 C-10.14845703 9.53087891 -10.98441406 9.37425781 -11.84570312 9.21289062 C-13.90038311 8.82543668 -15.95069952 8.41496739 -18 8 C-17.67 7.01 -17.34 6.02 -17 5 C-11.20939836 4.76364891 -6.50422123 5.16525959 -1 7 C-0.67 7 -0.34 7 0 7 C0 4.69 0 2.38 0 0 Z " fill="#ECF1F1" transform="translate(102,467)"/>
<path d="M0 0 C5.13285787 5.13285787 3.15224538 16.75336343 3.23046875 23.6796875 C3.01626247 26.76571024 2.63490155 28.42809954 1 31 C-0.84374341 24.08596222 -1.19254507 17.55357418 -1.1875 10.4375 C-1.18814453 9.53225586 -1.18878906 8.62701172 -1.18945312 7.69433594 C-1.13468565 1.13468565 -1.13468565 1.13468565 0 0 Z " fill="#EDF1F4" transform="translate(47,381)"/>
<path d="M0 0 C0 0.66 0 1.32 0 2 C-7.37627273 6.91751516 -17.2653289 8.39760889 -26 9 C-26 8.34 -26 7.68 -26 7 C-21.75059621 4.73926536 -17.62560681 3.13627563 -13 1.8125 C-11.2365625 1.29623047 -11.2365625 1.29623047 -9.4375 0.76953125 C-6.15829202 0.03543583 -3.34501398 -0.14787409 0 0 Z " fill="#F2F6F6" transform="translate(300,404)"/>
<path d="M0 0 C3.55524977 3.26493495 5.17073195 7.05700113 7.1875 11.375 C7.55552734 12.13039063 7.92355469 12.88578125 8.30273438 13.6640625 C10.13673694 17.55663938 11.53574834 20.59105465 11 25 C6.36295851 22.68147925 5.54425103 18.63275309 4 14 C3.34 13.67 2.68 13.34 2 13 C2.33 12.01 2.66 11.02 3 10 C2.01 9.67 1.02 9.34 0 9 C0.33 8.01 0.66 7.02 1 6 C0.01 5.67 -0.98 5.34 -2 5 C-1.34 3.35 -0.68 1.7 0 0 Z " fill="#EAF0F0" transform="translate(378,393)"/>
<path d="M0 0 C0.99 0.33 1.98 0.66 3 1 C4.68367139 1.20170439 6.37226749 1.3638086 8.0625 1.5 C11.94106383 1.82579936 15.8149791 2.17083478 19.6875 2.5625 C20.93080078 2.68818359 20.93080078 2.68818359 22.19921875 2.81640625 C23.09060547 2.90728516 23.09060547 2.90728516 24 3 C24 3.99 24 4.98 24 6 C22.95199219 5.98839844 21.90398437 5.97679687 20.82421875 5.96484375 C19.44531428 5.95546345 18.06640789 5.9463635 16.6875 5.9375 C15.99720703 5.92912109 15.30691406 5.92074219 14.59570312 5.91210938 C11.4516975 5.89692094 9.00579981 5.99806673 6 7 C4.17578125 6.00390625 4.17578125 6.00390625 2.3125 4.5625 C1.68988281 4.08941406 1.06726563 3.61632812 0.42578125 3.12890625 C-0.04472656 2.75636719 -0.51523438 2.38382812 -1 2 C-0.67 1.34 -0.34 0.68 0 0 Z " fill="#EEF1F1" transform="translate(110,265)"/>
<path d="M0 0 C2.375 0.6875 2.375 0.6875 3.375 1.6875 C3.44825168 4.55017567 3.46738205 7.388219 3.4375 10.25 C3.43298828 11.05630859 3.42847656 11.86261719 3.42382812 12.69335938 C3.41200518 14.69143756 3.39406914 16.68947783 3.375 18.6875 C2.055 19.0175 0.735 19.3475 -0.625 19.6875 C-1.625 17.6875 -1.625 17.6875 -1.1875 15.6875 C-0.37571853 11.35799883 -0.54824236 7.07974253 -0.625 2.6875 C-2.275 2.3575 -3.925 2.0275 -5.625 1.6875 C-2.625 -0.3125 -2.625 -0.3125 0 0 Z " fill="#EBF0F0" transform="translate(260.625,156.3125)"/>
<path d="M0 0 C0.66 0.33 1.32 0.66 2 1 C0.65824095 3.6835181 -0.49547988 3.72444582 -3.296875 4.69140625 C-4.1734375 4.99626953 -5.05 5.30113281 -5.953125 5.61523438 C-6.87609375 5.92783203 -7.7990625 6.24042969 -8.75 6.5625 C-9.6575 6.87896484 -10.565 7.19542969 -11.5 7.52148438 C-15.65556876 8.95223941 -19.66958823 10.20692481 -24 11 C-23.453125 9.203125 -23.453125 9.203125 -22 7 C-19.56112976 5.72805332 -17.30450589 4.71100414 -14.75 3.75 C-14.09386719 3.481875 -13.43773437 3.21375 -12.76171875 2.9375 C-8.67641357 1.3456117 -5.35800778 0.81511482 -1 1 C-0.67 0.67 -0.34 0.34 0 0 Z " fill="#EDF0F1" transform="translate(286,385)"/>
<path d="M0 0 C-3.14449224 0.65247647 -6.29080756 1.29572575 -9.4375 1.9375 C-10.75524414 2.21110352 -10.75524414 2.21110352 -12.09960938 2.49023438 C-17.72613087 3.63214833 -23.2848499 4.44767115 -29 5 C-29 4.34 -29 3.68 -29 3 C-27.948125 2.71125 -26.89625 2.4225 -25.8125 2.125 C-22.16854464 1.12289829 -22.16854464 1.12289829 -19.4375 -0.0625 C-13.43635673 -2.37063203 -5.49259504 -3.66173003 0 0 Z " fill="#E6E8E7" transform="translate(345,480)"/>
<path d="M0 0 C7.05889737 0.70588974 14.01204964 1.78213386 21 3 C21 3.66 21 4.32 21 5 C18.02007258 6.48996371 15.48688788 5.91897538 12.1875 5.6875 C10.96417969 5.60886719 9.74085937 5.53023438 8.48046875 5.44921875 C5.2917305 5.03765321 2.8955731 4.35126745 0 3 C0 2.01 0 1.02 0 0 Z " fill="#F0F1F1" transform="translate(63,468)"/>
<path d="M0 0 C2.37587624 0.11486425 4.75015171 0.24158156 7.125 0.375 C8.12273437 0.42140625 8.12273437 0.42140625 9.140625 0.46875 C13.39821262 0.71919633 17.02085783 1.47528197 21 3 C19 5 19 5 16.8984375 5.265625 C11.27483997 5.23080396 6.33883604 4.84432518 1 3 C0.67 2.01 0.34 1.02 0 0 Z " fill="#EBEFEC" transform="translate(60,487)"/>
<path d="M0 0 C1.32 0.66 2.64 1.32 4 2 C3.67 2.33 3.34 2.66 3 3 C2.83333333 5.5 2.83333333 5.5 3 8 C4.18424326 9.41577477 4.18424326 9.41577477 7.5625 9.0625 C9.2640625 9.0315625 9.2640625 9.0315625 11 9 C11.33 9.99 11.66 10.98 12 12 C9.69631264 13.06652192 7.35981813 14.06421005 5 15 C2.43839216 13.71919608 2.23538607 12.5434419 1 10 C0.4225 9.38125 -0.155 8.7625 -0.75 8.125 C-2 6 -2 6 -1.1875 2.75 C-0.795625 1.8425 -0.40375 0.935 0 0 Z " fill="#F4F6F8" transform="translate(231,345)"/>
<path d="M0 0 C1.9375 0.3125 1.9375 0.3125 4 1 C5.11779563 4.35338688 5.20267056 7.03251233 5.25 10.5625 C5.27578125 11.71878906 5.3015625 12.87507812 5.328125 14.06640625 C5.21984375 15.03449219 5.1115625 16.00257813 5 17 C4.01 17.66 3.02 18.32 2 19 C1.22389009 14.70856873 0.74815404 10.47415657 0.4375 6.125 C0.35371094 4.97257813 0.26992188 3.82015625 0.18359375 2.6328125 C0.12300781 1.76398438 0.06242187 0.89515625 0 0 Z " fill="#E9EEF0" transform="translate(272,211)"/>
<path d="M0 0 C0 0.99 0 1.98 0 3 C-7.7558343 4.70994772 -15.06603268 5.24923458 -23 5 C-22.67 4.01 -22.34 3.02 -22 2 C-18.33333333 2 -14.66666667 2 -11 2 C-8.67933948 1.23366248 -6.38925968 0.39705102 -4.09375 -0.44140625 C-2 -1 -2 -1 0 0 Z " fill="#EDF0F0" transform="translate(334,489)"/>
<path d="M0 0 C0.99 0.33 1.98 0.66 3 1 C2.6414456 3.754893 2.22678745 4.79992099 0.109375 6.66796875 C-0.66921875 7.16941406 -1.4478125 7.67085937 -2.25 8.1875 C-3.01828125 8.69667969 -3.7865625 9.20585938 -4.578125 9.73046875 C-7.08166046 11.04280589 -9.2163903 11.59035531 -12 12 C-12.33 10.68 -12.66 9.36 -13 8 C-12.01 8 -11.02 8 -10 8 C-9.67 7.34 -9.34 6.68 -9 6 C-6.67843403 5.59270772 -4.3431213 5.25561323 -2 5 C-2 4.34 -2 3.68 -2 3 C-1.34 2.34 -0.68 1.68 0 1 C0 0.67 0 0.34 0 0 Z " fill="#EDF2F1" transform="translate(387,507)"/>
<path d="M0 0 C0.66 0 1.32 0 2 0 C3.67761626 15.48799293 3.67761626 15.48799293 3 22 C2.34 22.66 1.68 23.32 1 24 C-1.00618719 18.10682512 -2.04684965 12.13146007 -0.48828125 5.98046875 C0.15958677 3.69267827 0.15958677 3.69267827 0 0 Z " fill="#E7ECEE" transform="translate(37,467)"/>
<path d="M0 0 C-1 2 -1 2 -4.7109375 3.2890625 C-6.26327626 3.74249478 -7.81811192 4.18744322 -9.375 4.625 C-10.54675781 4.96917969 -10.54675781 4.96917969 -11.7421875 5.3203125 C-14.9726758 6.24963105 -17.61562918 7 -21 7 C-20.04407385 4.59026951 -19.46868673 3.27070699 -17.1875 1.953125 C-11.34273584 0.0744508 -6.12110164 -0.34503078 0 0 Z " fill="#EFF2F3" transform="translate(270,414)"/>
<path d="M0 0 C1.02673828 0.05994141 1.02673828 0.05994141 2.07421875 0.12109375 C3.80752279 0.2480883 5.53158663 0.49014237 7.25 0.75 C7.58 1.41 7.91 2.07 8.25 2.75 C7.06921875 2.88277344 5.8884375 3.01554688 4.671875 3.15234375 C3.11456738 3.3305898 1.55727658 3.50898293 0 3.6875 C-1.16595703 3.81801758 -1.16595703 3.81801758 -2.35546875 3.95117188 C-3.10957031 4.03818359 -3.86367187 4.12519531 -4.640625 4.21484375 C-5.33188477 4.293396 -6.02314453 4.37194824 -6.73535156 4.45288086 C-8.78695313 4.75544983 -10.74782535 5.21412384 -12.75 5.75 C-12.75 4.43 -12.75 3.11 -12.75 1.75 C-8.43306245 -0.42520109 -4.7011026 -0.38949405 0 0 Z " fill="#EEEBEE" transform="translate(225.75,246.25)"/>
<path d="M0 0 C0.33 0 0.66 0 1 0 C1.25729927 16.38138686 1.25729927 16.38138686 0 23 C-0.66 23.66 -1.32 24.32 -2 25 C-3.5625 23.75 -3.5625 23.75 -5 22 C-4.6875 20.1875 -4.6875 20.1875 -4 18 C-3.96154557 16.00036972 -3.95455719 13.99948367 -4 12 C-3.34 12 -2.68 12 -2 12 C-1.34 8.04 -0.68 4.08 0 0 Z " fill="#EEF3F6" transform="translate(352,414)"/>
<path d="M0 0 C5.94 0.33 11.88 0.66 18 1 C17.01 2.485 17.01 2.485 16 4 C13.2114711 4.22107787 10.65346819 4.28107535 7.875 4.1875 C7.12089844 4.17396484 6.36679688 4.16042969 5.58984375 4.14648438 C3.72625873 4.11109985 1.86304022 4.05729167 0 4 C-0.33 3.34 -0.66 2.68 -1 2 C-0.67 1.34 -0.34 0.68 0 0 Z " fill="#EBEFF2" transform="translate(191,300)"/>
<path d="M0 0 C0.33 0 0.66 0 1 0 C1 9.9 1 19.8 1 30 C0.01 29.34 -0.98 28.68 -2 28 C-2.328125 25.21484375 -2.328125 25.21484375 -2.25 21.9375 C-2.23453125 20.85339844 -2.2190625 19.76929688 -2.203125 18.65234375 C-2 16 -2 16 -1 15 C-0.76346477 12.47403741 -0.57826308 9.96892793 -0.4375 7.4375 C-0.39431641 6.72658203 -0.35113281 6.01566406 -0.30664062 5.28320312 C-0.20028223 3.52238088 -0.09961154 1.7612168 0 0 Z " fill="#F0EFF4" transform="translate(262,121)"/>
<path d="M0 0 C3.17344304 0.91862825 4.64826723 1.38028036 6.3125 4.3125 C7.00035836 7.00140087 7.15782426 9.23807537 7 12 C6.34 12 5.68 12 5 12 C4.34 13.32 3.68 14.64 3 16 C2.33459011 11.5916595 2 7.45139547 2 3 C0.68 2.67 -0.64 2.34 -2 2 C-1.34 1.34 -0.68 0.68 0 0 Z " fill="#EEF5F7" transform="translate(257,182)"/>
<path d="M0 0 C1.2065625 0.0309375 1.2065625 0.0309375 2.4375 0.0625 C3.12457555 2.55314888 3.4375 4.44136292 3.4375 7.0625 C2.7775 7.0625 2.1175 7.0625 1.4375 7.0625 C1.4375 7.7225 1.4375 8.3825 1.4375 9.0625 C-0.2125 8.7325 -1.8625 8.4025 -3.5625 8.0625 C-3.60491723 5.72955225 -3.60342937 3.39547433 -3.5625 1.0625 C-2.5625 0.0625 -2.5625 0.0625 0 0 Z " fill="#F3FBFC" transform="translate(360.5625,429.9375)"/>
<path d="M0 0 C5.75 1.875 5.75 1.875 8 3 C10.33189345 3.26955833 12.66321507 3.44507377 15.00390625 3.62109375 C15.66261719 3.74613281 16.32132813 3.87117188 17 4 C17.33 4.66 17.66 5.32 18 6 C14.85658007 7.57170996 11.44228549 7.23175783 8 7 C7.01 6.67 6.02 6.34 5 6 C5 5.34 5 4.68 5 4 C4.360625 3.71125 3.72125 3.4225 3.0625 3.125 C1 2 1 2 0 0 Z " fill="#F0F3F4" transform="translate(120,105)"/>
<path d="M0 0 C0.66 0.66 1.32 1.32 2 2 C3.31747324 2.69748583 4.64914193 3.36959957 6 4 C5.67 4.66 5.34 5.32 5 6 C3.96875 5.505 2.9375 5.01 1.875 4.5 C-4.20858956 2.16100257 -10.58926631 2.75689633 -17 3 C-17 2.34 -17 1.68 -17 1 C-15.10630916 0.63455089 -13.20991218 0.28310825 -11.3125 -0.0625 C-10.25675781 -0.25972656 -9.20101562 -0.45695313 -8.11328125 -0.66015625 C-5.04741422 -0.9948243 -2.93504681 -0.89953274 0 0 Z " fill="#F0F4F4" transform="translate(187,247)"/>
<path d="M0 0 C5.02237015 -0.29543354 7.9107578 -0.00679573 12 3 C13 4 13 4 13.25 6.875 C13 10 13 10 11.5 11.875 C11.005 12.24625 10.51 12.6175 10 13 C9.34 12.67 8.68 12.34 8 12 C8.66 10.35 9.32 8.7 10 7 C9.34 6.67 8.68 6.34 8 6 C7.67 5.01 7.34 4.02 7 3 C3.48809191 1.77030122 3.48809191 1.77030122 0 1 C0 0.67 0 0.34 0 0 Z " fill="#F2FCFD" transform="translate(96,483)"/>
<path d="M0 0 C-2.35953094 2.35953094 -3.77895617 2.49141413 -7 3 C-7 3.66 -7 4.32 -7 5 C-12.37305699 6.67357513 -12.37305699 6.67357513 -15 7 C-17 5.625 -17 5.625 -18 4 C-5.33823529 -0.32352941 -5.33823529 -0.32352941 0 0 Z " fill="#EFF3F2" transform="translate(289,375)"/>
<path d="M0 0 C5.94 0 11.88 0 18 0 C18.33 0.99 18.66 1.98 19 3 C13.73236865 3.79511417 9.50234637 4.20344264 4.3125 3 C3.10013672 2.7215625 3.10013672 2.7215625 1.86328125 2.4375 C1.24839844 2.293125 0.63351562 2.14875 0 2 C0 1.34 0 0.68 0 0 Z " fill="#ECEFF0" transform="translate(268,268)"/>
<path d="M0 0 C1.60407328 -0.02708567 3.2082785 -0.04643483 4.8125 -0.0625 C5.70582031 -0.07410156 6.59914063 -0.08570313 7.51953125 -0.09765625 C10 0 10 0 13 1 C13 1.66 13 2.32 13 3 C14.65 3 16.3 3 18 3 C18 3.66 18 4.32 18 5 C14.26672242 6.3826954 12.59259187 5.48389664 9 4 C5.68357828 3.24094188 2.34659876 2.6108355 -1 2 C-0.67 1.34 -0.34 0.68 0 0 Z " fill="#EDF1F1" transform="translate(68,479)"/>
<path d="M0 0 C0.66 0.66 1.32 1.32 2 2 C1.77005929 9.24313228 -0.31323585 15.31433106 -3 22 C-3.66 21.34 -4.32 20.68 -5 20 C-4.65671642 13.82089552 -4.65671642 13.82089552 -2.5 11.125 C-0.13322151 7.7720638 -0.24888653 4.01651361 0 0 Z " fill="#E8ECEC" transform="translate(380,477)"/>
<path d="M0 0 C4.84659077 0.59104765 8.60748167 1.97944157 13 4 C12.67 4.99 12.34 5.98 12 7 C7.80530429 6.40075776 3.99000166 5.42500059 0 4 C0 2.68 0 1.36 0 0 Z " fill="#F2F3F2" transform="translate(377,428)"/>
<path d="M0 0 C3.125 0.6875 3.125 0.6875 6 2 C6.33 2.99 6.66 3.98 7 5 C5.35 5 3.7 5 2 5 C2.33 5.99 2.66 6.98 3 8 C2.01 8 1.02 8 0 8 C0 7.34 0 6.68 0 6 C-0.66 6 -1.32 6 -2 6 C-2.33 4.68 -2.66 3.36 -3 2 C-2.01 1.34 -1.02 0.68 0 0 Z " fill="#ECF1F5" transform="translate(373,436)"/>
<path d="M0 0 C0.33 0.99 0.66 1.98 1 3 C0.07421875 4.68359375 0.07421875 4.68359375 -1.3125 6.4375 C-3.17457354 8.87888531 -4.75613113 11.1730253 -6 14 C-6.66 13.67 -7.32 13.34 -8 13 C-7.67 12.01 -7.34 11.02 -7 10 C-6.855625 9.195625 -6.71125 8.39125 -6.5625 7.5625 C-6.01220333 5.05559295 -5.32843012 3.18800256 -4 1 C-2 0 -2 0 0 0 Z " fill="#EFF2F4" transform="translate(22,416)"/>
<path d="M0 0 C-0.99 0.99 -1.98 1.98 -3 3 C-3.99 2.67 -4.98 2.34 -6 2 C-7.47965926 1.85426942 -8.96403843 1.75336732 -10.44921875 1.68359375 C-11.29677734 1.64169922 -12.14433594 1.59980469 -13.01757812 1.55664062 C-13.89865234 1.51732422 -14.77972656 1.47800781 -15.6875 1.4375 C-16.58017578 1.39431641 -17.47285156 1.35113281 -18.39257812 1.30664062 C-20.59490108 1.20064647 -22.79733473 1.09857949 -25 1 C-25 1.66 -25 2.32 -25 3 C-24.34 3.33 -23.68 3.66 -23 4 C-23.99 4.495 -23.99 4.495 -25 5 C-25.99 4.34 -26.98 3.68 -28 3 C-27.34 2.01 -26.68 1.02 -26 0 C-23.70922852 -0.44824219 -23.70922852 -0.44824219 -20.87890625 -0.546875 C-19.86119141 -0.58683594 -18.84347656 -0.62679688 -17.79492188 -0.66796875 C-16.72822266 -0.69503906 -15.66152344 -0.72210938 -14.5625 -0.75 C-12.96825195 -0.81380859 -12.96825195 -0.81380859 -11.34179688 -0.87890625 C-3.44579658 -1.14859886 -3.44579658 -1.14859886 0 0 Z " fill="#FEFEFE" transform="translate(219,296)"/>
<path d="M0 0 C3.4375 1.3125 3.4375 1.3125 7 3 C7.33 3.99 7.66 4.98 8 6 C7 7 7 7 3.5625 7.125 C0 7 0 7 -2 6 C-1.34 4.02 -0.68 2.04 0 0 Z " fill="#EFEEED" transform="translate(209,289)"/>
<path d="M0 0 C1.67542976 0.28604898 3.34385343 0.61781233 5 1 C5 1.99 5 2.98 5 4 C0.8803623 5.29243536 -2.66831683 6.26252625 -7 6 C-7 5.01 -7 4.02 -7 3 C-5.5459375 2.5359375 -5.5459375 2.5359375 -4.0625 2.0625 C-1.15934208 1.30476658 -1.15934208 1.30476658 0 0 Z " fill="#F0F4F3" transform="translate(330,448)"/>
<path d="M0 0 C0.33 0 0.66 0 1 0 C1.05380578 2.79192205 1.09357669 5.5828141 1.125 8.375 C1.14175781 9.1690625 1.15851563 9.963125 1.17578125 10.78125 C1.19335473 12.85492015 1.10335168 14.92883241 1 17 C0.34 17.66 -0.32 18.32 -1 19 C-2.68072719 12.27709124 -2.56634962 6.41587404 0 0 Z " fill="#EBEFF1" transform="translate(361,392)"/>
<path d="M0 0 C-9.41002278 4.59225513 -9.41002278 4.59225513 -14 4 C-14 3.01 -14 2.02 -14 1 C-4.67256637 -3.11504425 -4.67256637 -3.11504425 0 0 Z " fill="#F0F0F3" transform="translate(175,194)"/>
<path d="M0 0 C1.5 2.0625 1.5 2.0625 2 4 C-1.04386724 4.08226668 -3.07175348 3.97608217 -6 3 C-6.33 3.66 -6.66 4.32 -7 5 C-8.32 3.35 -9.64 1.7 -11 0 C-7.13332369 -1.2888921 -3.91488768 -1.13303445 0 0 Z " fill="#EDF2F3" transform="translate(129,409)"/>
<path d="M0 0 C0.33 0 0.66 0 1 0 C1.84388104 8.16617194 2.06162705 15.84997076 1 24 C0.67 24 0.34 24 0 24 C-1.24299164 16.38667619 -1.3300703 8.69840424 -1 1 C-0.67 0.67 -0.34 0.34 0 0 Z " fill="#E3E5E5" transform="translate(47,386)"/>
<path d="M0 0 C1.8125 0.1875 1.8125 0.1875 4 1 C6.62334906 4.37287736 7.36372697 6.75651873 7 11 C6.01 11.495 6.01 11.495 5 12 C0.57142857 4.71428571 0.57142857 4.71428571 0 0 Z " fill="#EDF0F0" transform="translate(370,382)"/>
<path d="M0 0 C0.99 0.99 1.98 1.98 3 3 C1.625 5.5 1.625 5.5 0 8 C-0.66 8 -1.32 8 -2 8 C-2.33 8.99 -2.66 9.98 -3 11 C-3.66 10.67 -4.32 10.34 -5 10 C-4.4454626 6.67277559 -3.75986957 3.8986087 -2 1 C-1.34 0.67 -0.68 0.34 0 0 Z " fill="#EFF4F4" transform="translate(39,377)"/>
<path d="M0 0 C2.375 1.25 2.375 1.25 3.375 4.25 C4.035 4.91 4.695 5.57 5.375 6.25 C4.4675 6.085 3.56 5.92 2.625 5.75 C-0.73587503 5.14862854 -0.73587503 5.14862854 -4.625 5.25 C-5.285 4.92 -5.945 4.59 -6.625 4.25 C-6.3125 2.3125 -6.3125 2.3125 -5.625 0.25 C-2.625 -0.75 -2.625 -0.75 0 0 Z " fill="#EEF2F2" transform="translate(256.625,258.75)"/>
<path d="M0 0 C3.79939657 1.37105693 6.88690684 3.11560012 10.1875 5.4375 C11.04730469 6.03433594 11.90710938 6.63117188 12.79296875 7.24609375 C15 9 15 9 17 12 C16.01 12.495 16.01 12.495 15 13 C13.948125 11.8553125 13.948125 11.8553125 12.875 10.6875 C10.00711141 8.00664763 7.52581822 6.650383 4 5 C1.625 3.4375 1.625 3.4375 0 2 C0 1.34 0 0.68 0 0 Z " fill="#F7FEFD" transform="translate(169,406)"/>
<path d="M0 0 C0.66 0 1.32 0 2 0 C2 0.66 2 1.32 2 2 C2.66 2.33 3.32 2.66 4 3 C7 5 7 5 9 7 C3.58461538 8.23076923 3.58461538 8.23076923 0.625 7.0625 C0.08875 6.711875 -0.4475 6.36125 -1 6 C-0.67 4.02 -0.34 2.04 0 0 Z " fill="#F1F5F6" transform="translate(156,386)"/>
<path d="M0 0 C0.33 0 0.66 0 1 0 C1.33 1.65 1.66 3.3 2 5 C2.99 4.67 3.98 4.34 5 4 C5.33 5.32 5.66 6.64 6 8 C3.09399739 9.25664978 1.20395416 10 -2 10 C-2.17942163 6.05272412 -2.09350689 3.4019487 0 0 Z " fill="#F0F7F8" transform="translate(148,164)"/>
<path d="M0 0 C1.58409994 0.11487748 3.16728963 0.24234508 4.75 0.375 C6.07257813 0.47941406 6.07257813 0.47941406 7.421875 0.5859375 C9.99066382 0.99850055 11.75841015 1.71160957 14 3 C14 3.66 14 4.32 14 5 C9.97751827 5.18284008 7.49487974 4.98043185 4 3 C2.6757713 2.63215869 1.34386088 2.28797019 0 2 C0 1.34 0 0.68 0 0 Z " fill="#EEF0F1" transform="translate(232,289)"/>
<path d="M0 0 C3.34252724 -0.07427838 5.8035914 -0.06546953 9 1 C9.33 1.66 9.66 2.32 10 3 C10.99 3.33 11.98 3.66 13 4 C13 4.66 13 5.32 13 6 C11.39536551 5.68991116 9.79130769 5.37683713 8.1875 5.0625 C7.29417969 4.88847656 6.40085938 4.71445312 5.48046875 4.53515625 C3 4 3 4 0 3 C0 2.01 0 1.02 0 0 Z " fill="#ECF3F4" transform="translate(185,569)"/>
<path d="M0 0 C0.33 0 0.66 0 1 0 C1.13277344 0.61488281 1.26554688 1.22976563 1.40234375 1.86328125 C1.57894531 2.67152344 1.75554687 3.47976563 1.9375 4.3125 C2.19853516 5.51326172 2.19853516 5.51326172 2.46484375 6.73828125 C2.99886159 9.145401 2.99886159 9.145401 4 12 C1.525 11.01 1.525 11.01 -1 10 C-1 9.01 -1 8.02 -1 7 C-1.66 7 -2.32 7 -3 7 C-2.25 2.25 -2.25 2.25 0 0 Z " fill="#EDF0F2" transform="translate(232,377)"/>
<path d="M0 0 C3.63 0.66 7.26 1.32 11 2 C10.67 2.99 10.34 3.98 10 5 C2.57142857 5.28571429 2.57142857 5.28571429 -1 3 C-0.67 2.01 -0.34 1.02 0 0 Z " fill="#F0F3F3" transform="translate(84,368)"/>
<path d="M0 0 C0.53625 0.37125 1.0725 0.7425 1.625 1.125 C0.625 3.125 0.625 3.125 -1.6875 4.3125 C-4.49489571 5.16124754 -5.676935 5.12428333 -8.375 4.125 C-8.375 3.135 -8.375 2.145 -8.375 1.125 C-2.95961538 -1.09038462 -2.95961538 -1.09038462 0 0 Z " fill="#F1F3F4" transform="translate(269.375,380.875)"/>
<path d="M0 0 C0.86625 0.556875 0.86625 0.556875 1.75 1.125 C1.42 2.115 1.09 3.105 0.75 4.125 C-2.3125 5.3125 -2.3125 5.3125 -5.25 6.125 C-5.58 4.475 -5.91 2.825 -6.25 1.125 C-2.80384615 -1.09038462 -2.80384615 -1.09038462 0 0 Z " fill="#EFF3F3" transform="translate(229.25,311.875)"/>
<path d="M0 0 C1.17949219 0.10183594 2.35898438 0.20367188 3.57421875 0.30859375 C4.47785156 0.39238281 5.38148437 0.47617187 6.3125 0.5625 C6.3125 1.2225 6.3125 1.8825 6.3125 2.5625 C0.64583333 2.5625 -5.02083333 2.5625 -10.6875 2.5625 C-8.55715482 -1.69819037 -4.07079506 -0.36274411 0 0 Z " fill="#F5FCFD" transform="translate(67.6875,516.4375)"/>
<path d="M0 0 C0.99 0.33 1.98 0.66 3 1 C4.62323754 4.75907641 5.23994929 7.92086213 5 12 C2.5 9.9375 2.5 9.9375 0 7 C-0.3125 3.1875 -0.3125 3.1875 0 0 Z " fill="#ECEEF0" transform="translate(288,487)"/>
<path d="M0 0 C2.83022097 3.99560608 1.76210446 7.42737323 1 12 C0.01 12 -0.98 12 -2 12 C-1.85962479 10.18706911 -1.71255111 8.3746557 -1.5625 6.5625 C-1.48128906 5.55316406 -1.40007812 4.54382813 -1.31640625 3.50390625 C-1 1 -1 1 0 0 Z " fill="#EFF4F6" transform="translate(116,465)"/>
<path d="M0 0 C3 2 3 2 3.51171875 4.1640625 C3.56972656 4.97617187 3.62773437 5.78828125 3.6875 6.625 C3.75324219 7.44226563 3.81898438 8.25953125 3.88671875 9.1015625 C3.92410156 9.72804688 3.96148437 10.35453125 4 11 C3.01 11.495 3.01 11.495 2 12 C1.01 11.34 0.02 10.68 -1 10 C-0.34 9.34 0.32 8.68 1 8 C0.67 7.34 0.34 6.68 0 6 C-0.039992 4.00039988 -0.04346799 1.99952758 0 0 Z " fill="#ECF5F3" transform="translate(391,425)"/>
<path d="M0 0 C0 0.66 0 1.32 0 2 C-5.28 1.67 -10.56 1.34 -16 1 C-15 -1 -15 -1 -13.375 -1.6875 C-8.85691758 -2.28198453 -4.35450555 -1.21926155 0 0 Z " fill="#F1F3F4" transform="translate(227,150)"/>
<path d="M0 0 C0.99 0.33 1.98 0.66 3 1 C2.54625 1.7425 2.0925 2.485 1.625 3.25 C0.31359204 5.46930578 -0.88280803 7.67967822 -2 10 C-2.99 10 -3.98 10 -5 10 C-4.49701212 5.59885603 -2.91227269 3.28804981 0 0 Z " fill="#F0F3F4" transform="translate(112,43)"/>
<path d="M0 0 C2.92879371 0.62759865 5.36095629 1.58622659 8 3 C7.01 4.485 7.01 4.485 6 6 C2.875 6.1875 2.875 6.1875 0 6 C0 5.34 0 4.68 0 4 C-0.66 3.67 -1.32 3.34 -2 3 C-1.34 2.34 -0.68 1.68 0 1 C0 0.67 0 0.34 0 0 Z " fill="#F1F1ED" transform="translate(167,408)"/>
<path d="M0 0 C0.66 0.33 1.32 0.66 2 1 C2.36923077 8.38461538 2.36923077 8.38461538 0.5 11.5 C0.005 11.995 -0.49 12.49 -1 13 C-1.66 12.67 -2.32 12.34 -3 12 C-2 8 -1 4 0 0 Z " fill="#EFF1F2" transform="translate(112,503)"/>
<path d="M0 0 C1.11375 0.185625 2.2275 0.37125 3.375 0.5625 C6.82568861 1.31680657 6.82568861 1.31680657 9 0 C11.3494053 0.60760482 13.68529088 1.27129528 16 2 C16 2.66 16 3.32 16 4 C13.70800823 3.85936865 11.41640814 3.71234057 9.125 3.5625 C7.84882812 3.48128906 6.57265625 3.40007812 5.2578125 3.31640625 C2 3 2 3 0 2 C0 1.34 0 0.68 0 0 Z " fill="#ECEEEF" transform="translate(87,483)"/>
<path d="M0 0 C-0.33 0.66 -0.66 1.32 -1 2 C-3.69797102 2.63860769 -6.33366623 3.16825242 -9.0625 3.625 C-9.82111328 3.7590625 -10.57972656 3.893125 -11.36132812 4.03125 C-13.23952258 4.36200122 -15.11960338 4.68200734 -17 5 C-16.1953125 3.046875 -16.1953125 3.046875 -15 1 C-10.02487676 -0.19402958 -5.08549246 -0.08921917 0 0 Z " fill="#EFEFF0" transform="translate(305,382)"/>
<path d="M0 0 C1.32 0.66 2.64 1.32 4 2 C3.67 2.33 3.34 2.66 3 3 C2.92851801 4.35243917 2.91600546 5.70834367 2.9375 7.0625 C2.958125 8.361875 2.97875 9.66125 3 11 C0 10 0 10 -1.3125 7.75 C-2.1459454 4.4162184 -1.54409789 3.00241256 0 0 Z " fill="#E9EFF4" transform="translate(231,345)"/>
<path d="M0 0 C0.33 0.66 0.66 1.32 1 2 C3.01669827 3.13350534 3.01669827 3.13350534 5 4 C3 6 3 6 -0.625 6.125 C-1.73875 6.08375 -2.8525 6.0425 -4 6 C-3.6875 4.125 -3.6875 4.125 -3 2 C-2.01 1.34 -1.02 0.68 0 0 Z " fill="#E8EEED" transform="translate(361,513)"/>
<path d="M0 0 C0.99 0.33 1.98 0.66 3 1 C3.33 4.63 3.66 8.26 4 12 C3.34 12 2.68 12 2 12 C0.40861915 7.82262526 -0.21278058 4.46839215 0 0 Z " fill="#EEF1F4" transform="translate(5,481)"/>
<path d="M0 0 C-3.2811302 2.18742014 -5.33084356 2.54442806 -9.1875 3.125 C-10.27417969 3.29257812 -11.36085938 3.46015625 -12.48046875 3.6328125 C-13.31191406 3.75398438 -14.14335937 3.87515625 -15 4 C-10.76371625 -0.63575788 -6.14952479 -2.21382892 0 0 Z " fill="#EFF1F0" transform="translate(338,396)"/>
<path d="M0 0 C0.66 0.66 1.32 1.32 2 2 C1.01 2.99 0.02 3.98 -1 5 C-1.33 4.67 -1.66 4.34 -2 4 C-4.19050021 4.09017996 -6.378466 4.24666208 -8.5625 4.4375 C-9.76003906 4.53933594 -10.95757812 4.64117187 -12.19140625 4.74609375 C-13.11824219 4.82988281 -14.04507812 4.91367187 -15 5 C-11.96429023 3.30877707 -9.22708136 2.53769968 -5.8125 1.9375 C-2.60867047 1.57815332 -2.60867047 1.57815332 0 0 Z " fill="#EAEDEE" transform="translate(340,497)"/>
<path d="M0 0 C1.64666203 0.1135629 3.29236082 0.24117381 4.9375 0.375 C5.85402344 0.44460937 6.77054688 0.51421875 7.71484375 0.5859375 C8.84599609 0.79089844 8.84599609 0.79089844 10 1 C10.33 1.66 10.66 2.32 11 3 C11.99 3.66 12.98 4.32 14 5 C12 6 12 6 9.25 5.1875 C8.1775 4.795625 7.105 4.40375 6 4 C4.88625 3.62875 3.7725 3.2575 2.625 2.875 C1.75875 2.58625 0.8925 2.2975 0 2 C0 1.34 0 0.68 0 0 Z " fill="#EEF0EE" transform="translate(244,168)"/>
<path d="M0 0 C0.66 0.66 1.32 1.32 2 2 C1.7578125 4.3828125 1.7578125 4.3828125 1.125 7.125 C0.92132813 8.03507812 0.71765625 8.94515625 0.5078125 9.8828125 C0.34023438 10.58148438 0.17265625 11.28015625 0 12 C-0.66 11.67 -1.32 11.34 -2 11 C-2.25 3.375 -2.25 3.375 0 0 Z " fill="#EFEDEC" transform="translate(292,464)"/>
<path d="M0 0 C-3.24481751 2.16321167 -6.35055759 3.6314591 -10 5 C-10.99 4.67 -11.98 4.34 -13 4 C-12.01 3.67 -11.02 3.34 -10 3 C-10 2.34 -10 1.68 -10 1 C-6.42181037 -1.33958553 -4.07775191 -0.9267618 0 0 Z " fill="#EFF0F2" transform="translate(248,421)"/>
<path d="M0 0 C1.2065625 0.0309375 1.2065625 0.0309375 2.4375 0.0625 C2.4375 0.7225 2.4375 1.3825 2.4375 2.0625 C3.076875 2.18625 3.71625 2.31 4.375 2.4375 C5.055625 2.64375 5.73625 2.85 6.4375 3.0625 C6.7675 3.7225 7.0975 4.3825 7.4375 5.0625 C1.0375 5.55480769 1.0375 5.55480769 -2 3.0625 C-2.515625 2.4025 -3.03125 1.7425 -3.5625 1.0625 C-2.5625 0.0625 -2.5625 0.0625 0 0 Z " fill="#EDF2F3" transform="translate(155.5625,417.9375)"/>
<path d="M0 0 C-4.34242429 4.34242429 -8.13551546 4.7444669 -14 5 C-13.20703125 3.046875 -13.20703125 3.046875 -12 1 C-7.98287242 0.09046168 -4.10897143 -0.12451429 0 0 Z " fill="#EFF0F1" transform="translate(231,192)"/>
<path d="M0 0 C0.99 0.33 1.98 0.66 3 1 C3.1953125 7.0546875 3.1953125 7.0546875 3 9 C2.34 9.66 1.68 10.32 1 11 C0 10 0 10 -0.09765625 7.71484375 C-0.08605469 6.79832031 -0.07445312 5.88179688 -0.0625 4.9375 C-0.05347656 4.01839844 -0.04445313 3.09929687 -0.03515625 2.15234375 C-0.02355469 1.44207031 -0.01195312 0.73179687 0 0 Z " fill="#E9ECEF" transform="translate(294,502)"/>
<path d="M0 0 C0.66 0.66 1.32 1.32 2 2 C-0.734375 7.37109375 -0.734375 7.37109375 -2 9 C-3.32 9.33 -4.64 9.66 -6 10 C-4.68 7.36 -3.36 4.72 -2 2 C-1.34 2 -0.68 2 0 2 C0 1.34 0 0.68 0 0 Z " fill="#EDF0F4" transform="translate(397,496)"/>
<path d="M0 0 C-5.07672201 0.84612033 -9.84869218 1.26193091 -15 1 C-15.66 0.34 -16.32 -0.32 -17 -1 C-5.07692308 -3.38461538 -5.07692308 -3.38461538 0 0 Z " fill="#E9EFF0" transform="translate(345,480)"/>
<path d="M0 0 C0.7425 0.391875 1.485 0.78375 2.25 1.1875 C0.27579865 3.71009061 -0.71745642 4.1804808 -3.9375 4.875 C-5.3296875 5.0296875 -5.3296875 5.0296875 -6.75 5.1875 C-6.75 2.1875 -6.75 2.1875 -5.0625 0.375 C-2.75 -0.8125 -2.75 -0.8125 0 0 Z " fill="#EDF2F3" transform="translate(33.75,425.8125)"/>
<path d="M0 0 C0.66 0 1.32 0 2 0 C3.39195915 4.17587745 1.82323219 6.13474776 0 10 C-0.66 9.01 -1.32 8.02 -2 7 C-1.125 3.3125 -1.125 3.3125 0 0 Z " fill="#F0F2F3" transform="translate(237,214)"/>
<path d="M0 0 C1.5625 1.0625 1.5625 1.0625 3 3 C2.66666667 9.33333333 2.66666667 9.33333333 0 12 C-1.16063604 7.74433453 -0.76173392 4.3164922 0 0 Z " fill="#EFEFF0" transform="translate(182,213)"/>
<path d="M0 0 C0.66 0.99 1.32 1.98 2 3 C1.195625 3.12375 0.39125 3.2475 -0.4375 3.375 C-1.7059375 3.684375 -1.7059375 3.684375 -3 4 C-3.33 4.66 -3.66 5.32 -4 6 C-4.99 6 -5.98 6 -7 6 C-6.875 4.125 -6.875 4.125 -6 2 C-2.9375 0.75 -2.9375 0.75 0 0 Z " fill="#ECEFF3" transform="translate(218,297)"/>
<path d="M0 0 C-7.28571429 3.42857143 -7.28571429 3.42857143 -12 3 C-12 2.34 -12 1.68 -12 1 C-3.96428571 -1.27678571 -3.96428571 -1.27678571 0 0 Z " fill="#EBEDED" transform="translate(286,410)"/>
<path d="M0 0 C1.65 0.33 3.3 0.66 5 1 C5 1.66 5 2.32 5 3 C4.34 3 3.68 3 3 3 C3 3.66 3 4.32 3 5 C0.03 4.505 0.03 4.505 -3 4 C-2.01 2.68 -1.02 1.36 0 0 Z " fill="#F2F4F1" transform="translate(171,162)"/>
<path d="M0 0 C0.33 0.99 0.66 1.98 1 3 C-0.375 5.5 -0.375 5.5 -2 8 C-2.33 8.99 -2.66 9.98 -3 11 C-3.99 11.33 -4.98 11.66 -6 12 C-6.33 11.01 -6.66 10.02 -7 9 C-6.5875 8.62875 -6.175 8.2575 -5.75 7.875 C-3.49187988 5.45558559 -1.78960793 2.77697782 0 0 Z " fill="#EFF2F1" transform="translate(375,500)"/>
<path d="M0 0 C-0.33 1.32 -0.66 2.64 -1 4 C-3.375 3.6875 -3.375 3.6875 -6 3 C-6.66 2.01 -7.32 1.02 -8 0 C-5.13822943 -1.43088528 -3.06624227 -0.59991697 0 0 Z " fill="#F0F0F1" transform="translate(130,397)"/>
<path d="M0 0 C0.99 0 1.98 0 3 0 C3.66 1.32 4.32 2.64 5 4 C3.02 4.66 1.04 5.32 -1 6 C-1.33 5.01 -1.66 4.02 -2 3 C-1.34 2.01 -0.68 1.02 0 0 Z " fill="#EEF1EF" transform="translate(175,320)"/>
<path d="M0 0 C0.99386719 0.10183594 1.98773438 0.20367187 3.01171875 0.30859375 C3.77097656 0.39238281 4.53023437 0.47617188 5.3125 0.5625 C5.3125 0.8925 5.3125 1.2225 5.3125 1.5625 C0.6925 1.8925 -3.9275 2.2225 -8.6875 2.5625 C-8.6875 1.9025 -8.6875 1.2425 -8.6875 0.5625 C-5.3763987 -0.54120043 -3.44001051 -0.36423641 0 0 Z " fill="#EFECEC" transform="translate(178.6875,247.4375)"/>
<path d="M0 0 C0.53625 0.391875 1.0725 0.78375 1.625 1.1875 C-1.125 2.8125 -1.125 2.8125 -4.375 4.1875 C-6.75 3.375 -6.75 3.375 -8.375 2.1875 C-2.95961538 -1.0125 -2.95961538 -1.0125 0 0 Z " fill="#F3F0F1" transform="translate(300.375,371.8125)"/>
<path d="M0 0 C0.66 0 1.32 0 2 0 C2 0.66 2 1.32 2 2 C2.66 2 3.32 2 4 2 C4 2.99 4 3.98 4 5 C3.34 5 2.68 5 2 5 C1.34 6.32 0.68 7.64 0 9 C-1.125 2.25 -1.125 2.25 0 0 Z " fill="#EBEDEE" transform="translate(260,189)"/>
<path d="M0 0 C0 1.32 0 2.64 0 4 C-2.64 4 -5.28 4 -8 4 C-8 3.34 -8 2.68 -8 2 C-5.09399739 0.74335022 -3.20395416 0 0 0 Z " fill="#F2F1F3" transform="translate(309,492)"/>
<path d="M0 0 C2.475 0.495 2.475 0.495 5 1 C5.33 2.65 5.66 4.3 6 6 C5.01 5.67 4.02 5.34 3 5 C3.33 4.34 3.66 3.68 4 3 C3.01 3.33 2.02 3.66 1 4 C0.67 2.68 0.34 1.36 0 0 Z " fill="#EFF1F2" transform="translate(395,448)"/>
<path d="M0 0 C0.66 0 1.32 0 2 0 C2 0.66 2 1.32 2 2 C3.32 2.66 4.64 3.32 6 4 C5.67 4.66 5.34 5.32 5 6 C3.68 6 2.36 6 1 6 C0.34 4.35 -0.32 2.7 -1 1 C-0.67 0.67 -0.34 0.34 0 0 Z " fill="#EBEFF0" transform="translate(369,424)"/>
<path d="M0 0 C3.375 -0.1875 3.375 -0.1875 7 0 C7.66 0.99 8.32 1.98 9 3 C8.34 3.66 7.68 4.32 7 5 C7 4.34 7 3.68 7 3 C4.69 2.67 2.38 2.34 0 2 C0 1.34 0 0.68 0 0 Z " fill="#F2F2F5" transform="translate(109,384)"/>
<path d="M0 0 C0.66 0 1.32 0 2 0 C3.125 6.75 3.125 6.75 2 9 C1.34 9 0.68 9 0 9 C0 6.03 0 3.06 0 0 Z " fill="#F3F0F3" transform="translate(243,346)"/>
<path d="M0 0 C3.01217112 0.64449607 5.51655836 1.65022182 8.25 3.0625 C8.95640625 3.42472656 9.6628125 3.78695313 10.390625 4.16015625 C10.92171875 4.43730469 11.4528125 4.71445312 12 5 C8.52128379 6.15957207 7.65780355 5.77456651 4.3125 4.5625 C3.50425781 4.27503906 2.69601563 3.98757813 1.86328125 3.69140625 C1.24839844 3.46324219 0.63351563 3.23507812 0 3 C0 2.01 0 1.02 0 0 Z " fill="#F2F3F4" transform="translate(244,325)"/>
<path d="M0 0 C2.9375 0.8125 2.9375 0.8125 6 2 C6.33 2.99 6.66 3.98 7 5 C5.02 5 3.04 5 1 5 C0.67 3.35 0.34 1.7 0 0 Z " fill="#ECEFEF" transform="translate(191,291)"/>
<path d="M0 0 C2.5 1.8125 2.5 1.8125 5 4 C5 4.99 5 5.98 5 7 C4.01 7.33 3.02 7.66 2 8 C0.74335022 5.09399739 0 3.20395416 0 0 Z " fill="#F1F3F5" transform="translate(248,339)"/>
<path d="M0 0 C0.99 0.33 1.98 0.66 3 1 C3.94921875 3.06640625 3.94921875 3.06640625 4.6875 5.5625 C4.93886719 6.38878906 5.19023438 7.21507812 5.44921875 8.06640625 C5.63097656 8.70449219 5.81273437 9.34257812 6 10 C3.66475218 7.74259377 1.81294927 5.7194239 0 3 C0 2.01 0 1.02 0 0 Z " fill="#EEEFF0" transform="translate(32,499)"/>
<path d="M0 0 C0.33 0 0.66 0 1 0 C1 2.97 1 5.94 1 9 C-0.32 8.67 -1.64 8.34 -3 8 C-2.67 6.68 -2.34 5.36 -2 4 C-1.34 4 -0.68 4 0 4 C0 2.68 0 1.36 0 0 Z " fill="#EAF0F0" transform="translate(351,489)"/>
<path d="M0 0 C0.33 0.66 0.66 1.32 1 2 C3.32156597 2.40729228 5.6568787 2.74438677 8 3 C4.5647952 5.29013653 3.014669 5.17842973 -1 5 C-0.67 3.35 -0.34 1.7 0 0 Z " fill="#EFFCFC" transform="translate(59,474)"/>
<path d="M0 0 C0 0.66 0 1.32 0 2 C-3.3 2.66 -6.6 3.32 -10 4 C-6.32379932 0.32379932 -5.15439554 0 0 0 Z " fill="#F5F9FA" transform="translate(222,246)"/>
<path d="M0 0 C0.99 0.66 1.98 1.32 3 2 C3 2.99 3 3.98 3 5 C0.69 4.67 -1.62 4.34 -4 4 C-2.68 2.68 -1.36 1.36 0 0 Z " fill="#EBF5F7" transform="translate(49,515)"/>
<path d="M0 0 C3.3 0.33 6.6 0.66 10 1 C10 1.66 10 2.32 10 3 C9.0925 2.835 8.185 2.67 7.25 2.5 C3.88912497 1.89862854 3.88912497 1.89862854 0 2 C0 1.34 0 0.68 0 0 Z " fill="#F1EFF2" transform="translate(86,491)"/>
<path d="M0 0 C1.98 0.99 1.98 0.99 4 2 C3.67 3.65 3.34 5.3 3 7 C2.34 7 1.68 7 1 7 C0.67 4.69 0.34 2.38 0 0 Z " fill="#EFEFF0" transform="translate(102,467)"/>
<path d="M0 0 C2.875 0.3125 2.875 0.3125 6 1 C6.66 1.99 7.32 2.98 8 4 C6.02 4 4.04 4 2 4 C1.34 2.68 0.68 1.36 0 0 Z " fill="#F2F0F2" transform="translate(105,457)"/>
<path d="M0 0 C-1 3 -1 3 -3.9375 4.75 C-5.4534375 5.36875 -5.4534375 5.36875 -7 6 C-7.66 5.67 -8.32 5.34 -9 5 C-8.01 4.67 -7.02 4.34 -6 4 C-5.67 3.01 -5.34 2.02 -5 1 C-2 0 -2 0 0 0 Z " fill="#EEF1F1" transform="translate(261,395)"/>
<path d="M0 0 C1.32 0.33 2.64 0.66 4 1 C4 1.99 4 2.98 4 4 C2.02 4.33 0.04 4.66 -2 5 C-1.34 3.35 -0.68 1.7 0 0 Z " fill="#F5F9FB" transform="translate(102,250)"/>
<path d="M0 0 C4.43090471 1.20842856 6.98112756 2.51668565 10 6 C6 6 6 6 4.5 4.625 C4.005 4.08875 3.51 3.5525 3 3 C0.90010348 1.82425289 0.90010348 1.82425289 -1 1 C-0.67 0.67 -0.34 0.34 0 0 Z " fill="#FCFDFE" transform="translate(187,247)"/>
<path d="M0 0 C1.65 1.65 3.3 3.3 5 5 C4.34 5 3.68 5 3 5 C2.67 5.66 2.34 6.32 2 7 C0.68 5.35 -0.64 3.7 -2 2 C-1.34 1.34 -0.68 0.68 0 0 Z " fill="#F0F1EF" transform="translate(194,432)"/>
<path d="M0 0 C0.66 1.32 1.32 2.64 2 4 C-0.64 4 -3.28 4 -6 4 C-6 3.34 -6 2.68 -6 2 C-4.02 1.34 -2.04 0.68 0 0 Z " fill="#EFF2F2" transform="translate(308,401)"/>
<path d="M0 0 C4.455 0.99 4.455 0.99 9 2 C8.01 2.66 7.02 3.32 6 4 C2.3125 3.125 2.3125 3.125 -1 2 C-0.67 1.34 -0.34 0.68 0 0 Z " fill="#EEEFEF" transform="translate(102,391)"/>
<path d="M0 0 C0.33 0 0.66 0 1 0 C1 1.65 1 3.3 1 5 C-0.98 5.99 -0.98 5.99 -3 7 C-2.25 2.25 -2.25 2.25 0 0 Z " fill="#EFF2F6" transform="translate(252,385)"/>
<path d="M0 0 C2.125 0.9375 2.125 0.9375 4 2 C4 2.66 4 3.32 4 4 C1.03 3.505 1.03 3.505 -2 3 C-2 2.34 -2 1.68 -2 1 C-1.34 0.67 -0.68 0.34 0 0 Z " fill="#F0F1F2" transform="translate(94,510)"/>
<path d="M0 0 C0.66 0 1.32 0 2 0 C1.67 2.97 1.34 5.94 1 9 C0.34 8.67 -0.32 8.34 -1 8 C-1.08226668 4.95613276 -0.97608217 2.92824652 0 0 Z " fill="#F0FAFC" transform="translate(29,453)"/>
<path d="M0 0 C0.598125 0.20625 1.19625 0.4125 1.8125 0.625 C0.1625 1.945 -1.4875 3.265 -3.1875 4.625 C-3.8475 3.635 -4.5075 2.645 -5.1875 1.625 C-2.1875 -0.375 -2.1875 -0.375 0 0 Z " fill="#F4F1F3" transform="translate(229.1875,426.375)"/>
<path d="M0 0 C2.31 0 4.62 0 7 0 C6.67 1.32 6.34 2.64 6 4 C4.02 3.34 2.04 2.68 0 2 C0 1.34 0 0.68 0 0 Z " fill="#F1F5F4" transform="translate(173,426)"/>
<path d="M0 0 C0.33 0 0.66 0 1 0 C1.1875 3.375 1.1875 3.375 1 7 C0.01 7.66 -0.98 8.32 -2 9 C-2.20140476 5.37471432 -1.85776765 3.13498292 0 0 Z " fill="#EDEFEF" transform="translate(148,164)"/>
<path d="M0 0 C2.475 0.99 2.475 0.99 5 2 C3.68 3.32 2.36 4.64 1 6 C0 5 0 5 -0.0625 2.4375 C-0.041875 1.633125 -0.02125 0.82875 0 0 Z " fill="#EEF1F3" transform="translate(256,34)"/>
</svg>
