<!DOCTYPE svg PUBLIC "-//W3C//DTD SVG 1.1//EN" "http://www.w3.org/Graphics/SVG/1.1/DTD/svg11.dtd">
<!-- Uploaded to: SVG Repo, www.svgrepo.com, Transformed by: SVG Repo Mixer Tools -->
<svg height="800px" width="800px" version="1.1" id="Layer_1" xmlns="http://www.w3.org/2000/svg" xmlns:xlink="http://www.w3.org/1999/xlink" viewBox="0 0 512.001 512.001" xml:space="preserve" fill="#000000">
<g id="SVGRepo_bgCarrier" stroke-width="0"/>
<g id="SVGRepo_tracerCarrier" stroke-linecap="round" stroke-linejoin="round"/>
<g id="SVGRepo_iconCarrier"> <polygon style="fill:#a0aeac;" points="390.808,471.613 89.035,471.613 21.913,294.586 457.93,294.586 "/> <g> <path style="fill:#496061;" d="M452.789,152.078c-3.466,0-6.944-1.241-9.709-3.759c-5.893-5.365-6.32-14.491-0.955-20.383 l44.778-49.184c5.366-5.891,14.491-6.32,20.383-0.955c5.893,5.365,6.32,14.491,0.955,20.383l-44.778,49.184 C460.614,150.49,456.708,152.078,452.789,152.078z"/> <path style="fill:#496061;" d="M475.711,277.125c0-37.21-26.479-68.35-61.584-75.569l10.819-11.883 c5.365-5.893,4.937-15.019-0.955-20.383c-5.893-5.365-15.019-4.936-20.383,0.955l-6.877,7.553 c-2.656-23.889-14.442-45.049-31.779-59.928l41.192-70.175c4.034-6.872,1.733-15.714-5.139-19.748 c-6.872-4.033-15.714-1.731-19.748,5.139L340.4,102.688c-10.973-4.596-23.008-7.142-35.629-7.142 c-49.897,0-90.509,39.044-92.454,88.886c-0.312,7.963,5.891,14.67,13.854,14.981c8.015,0.359,14.671-5.893,14.981-13.854 c1.34-34.294,29.284-61.156,63.62-61.156c7.291,0,14.292,1.248,20.821,3.513l-89.365,152.241H31.498 c-1.729-5.09-2.64-10.459-2.64-15.91c0-27.244,22.164-49.408,49.408-49.408c6.22,0,12.305,1.156,18.091,3.434 c7.172,2.827,15.306-0.489,18.459-7.53c9.846-22.004,31.768-36.222,55.845-36.222c7.967,0,14.429-6.461,14.429-14.429 c0-7.967-6.461-14.429-14.429-14.429c-31.133,0-59.814,16.143-76.144,42.018c-5.321-1.131-10.752-1.701-16.25-1.701 C35.109,185.981,0,221.09,0,264.246c0,12.25,2.866,24.257,8.314,35.105c0.04,0.115,67.23,177.375,67.23,177.375 c2.127,5.607,7.496,9.314,13.492,9.314H390.81c5.995,0,11.365-3.707,13.492-9.314c0,0,64.702-168.056,65.343-169.57 C473.669,297.639,475.711,287.534,475.711,277.125z M398.566,228.837c26.625,0,48.287,21.662,48.287,48.288 c0,1.017-0.042,2.026-0.104,3.033H342.567l45.719-50.217C391.646,229.211,395.083,228.837,398.566,228.837z M350.013,143.317 c11.394,11.513,18.446,27.334,18.446,44.773c0,8.53-1.658,16.809-4.93,24.609c-0.328,0.779-0.558,1.578-0.742,2.384l-59.243,65.075 H269.69L350.013,143.317z M380.848,457.185H98.995L42.816,309.016h394.213L380.848,457.185z"/> </g> </g>
</svg>